<?xml version="1.0" encoding="utf-8"?>
<!-- Generator: Adobe Illustrator 22.1.0, SVG Export Plug-In . SVG Version: 6.00 Build 0)  -->
<svg version="1.1" xmlns="http://www.w3.org/2000/svg" xmlns:xlink="http://www.w3.org/1999/xlink" x="0px" y="0px"
	 viewBox="0 0 122 22" style="enable-background:new 0 0 122 22;" xml:space="preserve">
<style type="text/css">
	.st0{fill:#280700;}
	.st1{display:none;}
	.st2{display:inline;fill:#FF7100;}
	.st3{fill:#FF7100;}
	.st4{display:inline;fill:#FFFFFF;}
</style>
<g id="Calque_1">
	<rect x="0" class="st0" width="122" height="22"/>
	<g class="st1">
		<path class="st2" d="M13.4,10.2h-1.2c0-0.1,0-0.1,0-0.1c0-0.4-0.1-0.6-0.2-0.7c-0.1-0.1-0.5-0.1-1-0.1c-0.6,0-1,0.1-1.2,0.2
			c-0.2,0.1-0.3,0.3-0.3,0.7c0,0.4,0.1,0.7,0.2,0.8c0.1,0.1,0.6,0.2,1.5,0.2c1,0.1,1.6,0.2,1.9,0.4c0.3,0.2,0.4,0.7,0.4,1.4
			c0,0.9-0.2,1.5-0.5,1.7S12,15,10.8,15c-1,0-1.7-0.1-2.1-0.4s-0.5-0.8-0.5-1.5l0-0.2h1.2l0,0.1c0,0.5,0.1,0.8,0.2,0.9
			C9.9,13.9,10.3,14,11,14c0.6,0,0.9-0.1,1.1-0.2c0.2-0.1,0.2-0.4,0.2-0.8c0-0.3-0.1-0.5-0.2-0.6c-0.1-0.1-0.4-0.2-0.8-0.2l-0.7,0
			c-1.1-0.1-1.7-0.2-2-0.4c-0.3-0.2-0.4-0.7-0.4-1.5c0-0.8,0.2-1.3,0.5-1.6s1.1-0.4,2.1-0.4c1,0,1.7,0.1,2,0.4
			c0.3,0.2,0.5,0.7,0.5,1.4V10.2z"/>
		<path class="st2" d="M15.6,9.3V11h3.1V12h-3.1v1.9h3.3v1.1h-4.6V8.3h4.6v1.1H15.6z"/>
		<path class="st2" d="M24,12.5h1.3v0.2c0,0.9-0.2,1.5-0.5,1.8c-0.3,0.3-1.1,0.4-2.2,0.4c-1.3,0-2.1-0.2-2.4-0.6s-0.5-1.6-0.5-3.4
			c0-1.1,0.2-1.8,0.6-2.2s1.3-0.5,2.6-0.5c1,0,1.6,0.1,1.9,0.4c0.3,0.3,0.5,0.9,0.5,1.7l0,0.2h-1.3v-0.2c0-0.4-0.1-0.7-0.2-0.8
			s-0.5-0.2-1.1-0.2c-0.8,0-1.3,0.1-1.4,0.3c-0.2,0.2-0.2,0.8-0.2,1.7c0,1.3,0.1,2,0.2,2.3s0.6,0.4,1.4,0.4c0.6,0,1-0.1,1.2-0.2
			c0.2-0.1,0.3-0.4,0.3-0.9L24,12.5z"/>
		<path class="st2" d="M30.3,8.3h1.3v4.4c0,0.9-0.2,1.5-0.5,1.8C30.7,14.8,30,15,28.9,15c-1.2,0-1.9-0.1-2.3-0.4s-0.5-0.9-0.5-1.8
			V8.3h1.3v4.5c0,0.5,0.1,0.8,0.3,0.9s0.6,0.2,1.2,0.2c0.7,0,1.1-0.1,1.3-0.2c0.2-0.1,0.3-0.5,0.3-1V8.3z"/>
		<path class="st2" d="M32.8,14.9V8.3h3.3c0.8,0,1.4,0.1,1.7,0.4s0.5,0.8,0.5,1.5c0,0.7-0.1,1.1-0.2,1.4c-0.2,0.2-0.5,0.4-0.9,0.5v0
			c0.7,0,1.1,0.5,1.1,1.3v1.5h-1.3v-1.2c0-0.7-0.3-1-1-1H34v2.2H32.8z M34,11.6h1.8c0.4,0,0.7-0.1,0.9-0.2c0.1-0.2,0.2-0.5,0.2-0.9
			c0-0.5-0.1-0.8-0.2-0.9c-0.1-0.1-0.4-0.2-0.8-0.2H34V11.6z"/>
		<path class="st2" d="M40.5,8.3v6.7h-1.3V8.3H40.5z"/>
		<path class="st2" d="M44.3,9.4v5.5h-1.3V9.4h-1.9V8.3h5.2v1.1H44.3z"/>
		<path class="st2" d="M52.5,8.3L50,12.4v2.5h-1.3v-2.5l-2.4-4.1h1.5l1,1.8c0.1,0.1,0.1,0.3,0.3,0.5l0.1,0.3l0.1,0.3h0l0.1-0.3
			l0.1-0.3c0.1-0.2,0.2-0.4,0.3-0.5l1-1.8H52.5z"/>
		<path class="st2" d="M54.1,13.7v1.2c0,0.8-0.3,1.2-1,1.2c0,0-0.1,0-0.2,0v-0.5c0.4,0,0.5-0.1,0.5-0.4l0-0.1H53v-1.2H54.1z"/>
		<path class="st2" d="M59,9.3v1.8h3v1.1h-3v2.7h-1.3V8.3h4.4v1.1H59z"/>
		<path class="st2" d="M64.2,8.3v5.5h3.1v1.1H63V8.3H64.2z"/>
		<path class="st2" d="M69.1,9.3V11h3.1V12h-3.1v1.9h3.3v1.1h-4.6V8.3h4.6v1.1H69.1z"/>
		<path class="st2" d="M74.5,9.3V11h3.1V12h-3.1v1.9h3.3v1.1h-4.6V8.3h4.6v1.1H74.5z"/>
		<path class="st2" d="M81.4,9.4v5.5h-1.3V9.4h-1.9V8.3h5.2v1.1H81.4z"/>
		<path class="st2" d="M88.2,12.5h1.3v0.2c0,0.9-0.2,1.5-0.5,1.8c-0.3,0.3-1.1,0.4-2.2,0.4c-1.3,0-2.1-0.2-2.4-0.6s-0.5-1.6-0.5-3.4
			c0-1.1,0.2-1.8,0.6-2.2s1.3-0.5,2.6-0.5c1,0,1.6,0.1,1.9,0.4c0.3,0.3,0.5,0.9,0.5,1.7l0,0.2h-1.3v-0.2c0-0.4-0.1-0.7-0.2-0.8
			c-0.2-0.1-0.5-0.2-1.1-0.2c-0.8,0-1.3,0.1-1.4,0.3c-0.2,0.2-0.2,0.8-0.2,1.7c0,1.3,0.1,2,0.2,2.3s0.6,0.4,1.4,0.4
			c0.6,0,1-0.1,1.2-0.2c0.2-0.1,0.3-0.4,0.3-0.9L88.2,12.5z"/>
		<path class="st2" d="M93,8.2c1.2,0,2,0.2,2.3,0.6c0.3,0.4,0.5,1.3,0.5,2.7c0,1.5-0.2,2.5-0.5,2.9C95,14.8,94.2,15,92.8,15
			c-1.2,0-2-0.2-2.3-0.6c-0.4-0.4-0.5-1.3-0.5-2.6c0-1.6,0.2-2.6,0.5-3C90.8,8.4,91.7,8.2,93,8.2z M92.9,9.3c-0.8,0-1.3,0.1-1.5,0.3
			c-0.1,0.2-0.2,1-0.2,2.3c0,1,0.1,1.5,0.3,1.7c0.2,0.2,0.7,0.3,1.5,0.3c0.8,0,1.3-0.1,1.4-0.3s0.2-0.9,0.2-2c0-1.1-0.1-1.8-0.2-2
			C94.2,9.4,93.7,9.3,92.9,9.3z"/>
		<path class="st2" d="M104.5,8.3v6.7h-1.3v-3.6c0-0.3,0-0.6,0-1l0-0.5l0-0.5h0l-0.2,0.5l-0.1,0.5c-0.1,0.4-0.2,0.7-0.3,0.9
			l-1.5,3.8h-1.2l-1.5-3.7c-0.1-0.2-0.2-0.5-0.3-0.9l-0.2-0.5L98,9.3h0l0,0.5l0,0.5c0,0.4,0,0.7,0,1v3.6h-1.3V8.3h2.1l1.2,3.1
			c0.1,0.2,0.2,0.5,0.3,0.9l0.1,0.5l0.2,0.5h0l0.1-0.5l0.1-0.5c0.1-0.4,0.2-0.7,0.3-0.9l1.2-3.1H104.5z"/>
		<path class="st2" d="M113.5,8.3v6.7h-1.3v-3.6c0-0.3,0-0.6,0-1l0-0.5l0-0.5h0l-0.2,0.5l-0.1,0.5c-0.1,0.4-0.2,0.7-0.3,0.9
			l-1.5,3.8H109l-1.5-3.7c-0.1-0.2-0.2-0.5-0.3-0.9l-0.2-0.5l-0.2-0.5h0l0,0.5l0,0.5c0,0.4,0,0.7,0,1v3.6h-1.3V8.3h2.1l1.2,3.1
			c0.1,0.2,0.2,0.5,0.3,0.9l0.1,0.5l0.2,0.5h0l0.1-0.5l0.1-0.5c0.1-0.4,0.2-0.7,0.3-0.9l1.2-3.1H113.5z"/>
	</g>
	<g class="st1">
		<path class="st2" d="M42.9,8.3l-1.8,6.7h-1.9l-0.9-3.4c-0.1-0.3-0.2-0.7-0.3-1.2L38,9.8h0l-0.1,0.4l-0.1,0.4
			c-0.1,0.3-0.1,0.6-0.2,0.8l-1,3.4h-1.9L33,8.3h1.3l1,3.7c0.1,0.2,0.1,0.6,0.2,1l0.1,0.5l0.1,0.5h0c0.1-0.2,0.1-0.4,0.1-0.5
			l0.1-0.5c0.1-0.3,0.1-0.6,0.3-1l1-3.7h1.5l1,3.7c0.1,0.3,0.2,0.6,0.2,1l0.1,0.5l0.1,0.5h0l0.1-0.5l0.1-0.5c0.1-0.4,0.2-0.7,0.2-1
			l1-3.7H42.9z"/>
		<path class="st2" d="M47.5,13.6h-2.9l-0.4,1.3h-1.3l2.2-6.7H47l2.3,6.7H48L47.5,13.6z M47.3,12.7l-1.2-3.5L45,12.7H47.3z"/>
		<path class="st2" d="M55.4,8.3l-2.5,4.1v2.5h-1.3v-2.5l-2.4-4.1h1.5l1,1.8c0.1,0.1,0.1,0.3,0.3,0.5l0.1,0.3l0.1,0.3h0l0.1-0.3
			l0.1-0.3c0.1-0.2,0.2-0.4,0.3-0.5l1-1.8H55.4z"/>
		<path class="st2" d="M55.9,14.9V8.3h2.7H59c0.9,0,1.5,0.2,1.8,0.5c0.3,0.3,0.5,0.9,0.5,1.8c0,0.9-0.1,1.5-0.4,1.8
			s-0.9,0.4-1.8,0.4l-0.3,0h-1.5v2.2H55.9z M57.2,11.7h1.4c0.6,0,0.9-0.1,1.1-0.2s0.2-0.4,0.2-0.9c0-0.6-0.1-0.9-0.2-1
			c-0.1-0.1-0.5-0.2-1-0.2h-1.6V11.7z"/>
		<path class="st2" d="M64.8,8.2c1.2,0,2,0.2,2.3,0.6c0.3,0.4,0.5,1.3,0.5,2.7c0,1.5-0.2,2.5-0.5,2.9C66.8,14.8,66,15,64.6,15
			c-1.2,0-2-0.2-2.3-0.6c-0.4-0.4-0.5-1.3-0.5-2.6c0-1.6,0.2-2.6,0.5-3C62.6,8.4,63.5,8.2,64.8,8.2z M64.7,9.3
			c-0.8,0-1.3,0.1-1.5,0.3c-0.1,0.2-0.2,1-0.2,2.3c0,1,0.1,1.5,0.3,1.7c0.2,0.2,0.7,0.3,1.5,0.3c0.8,0,1.3-0.1,1.4-0.3
			s0.2-0.9,0.2-2c0-1.1-0.1-1.8-0.2-2C66,9.4,65.5,9.3,64.7,9.3z"/>
		<path class="st2" d="M69.8,8.3v6.7h-1.3V8.3H69.8z"/>
		<path class="st2" d="M77.2,8.3v6.7H75l-1.9-3.7c-0.1-0.2-0.2-0.5-0.4-1l-0.2-0.5l-0.2-0.5h0l0,0.4l0,0.4l0,0.9v3.8H71V8.3h2.1
			l1.7,3.4c0.2,0.3,0.3,0.7,0.5,1.1l0.3,0.5l0.3,0.5h0l0-0.4l0-0.4l0-0.9V8.3H77.2z"/>
		<path class="st2" d="M81,9.4v5.5h-1.3V9.4h-1.9V8.3H83v1.1H81z"/>
		<path class="st2" d="M88.6,10.2h-1.2c0-0.1,0-0.1,0-0.1c0-0.4-0.1-0.6-0.2-0.7c-0.1-0.1-0.5-0.1-1-0.1c-0.6,0-1,0.1-1.2,0.2
			c-0.2,0.1-0.3,0.3-0.3,0.7c0,0.4,0.1,0.7,0.2,0.8c0.2,0.1,0.6,0.2,1.5,0.2c1,0.1,1.6,0.2,1.9,0.4c0.3,0.2,0.4,0.7,0.4,1.4
			c0,0.9-0.2,1.5-0.5,1.7S87.1,15,86,15c-1,0-1.7-0.1-2.1-0.4c-0.3-0.3-0.5-0.8-0.5-1.5l0-0.2h1.2l0,0.1c0,0.5,0.1,0.8,0.2,0.9
			c0.2,0.1,0.6,0.2,1.3,0.2c0.6,0,0.9-0.1,1.1-0.2c0.2-0.1,0.2-0.4,0.2-0.8c0-0.3-0.1-0.5-0.2-0.6c-0.1-0.1-0.4-0.2-0.8-0.2l-0.7,0
			c-1.1-0.1-1.7-0.2-2-0.4c-0.3-0.2-0.4-0.7-0.4-1.5c0-0.8,0.2-1.3,0.5-1.6C84.3,8.3,85,8.2,86,8.2c1,0,1.7,0.1,2,0.4
			c0.3,0.2,0.5,0.7,0.5,1.4V10.2z"/>
	</g>
	<g class="st1">
		<path class="st2" d="M33,5.2h-1.2c0-0.1,0-0.1,0-0.1c0-0.4-0.1-0.6-0.2-0.7c-0.1-0.1-0.5-0.1-1-0.1c-0.6,0-1,0.1-1.2,0.2
			c-0.2,0.1-0.3,0.3-0.3,0.7c0,0.4,0.1,0.7,0.2,0.8C29.5,5.9,29.9,6,30.8,6c1,0.1,1.6,0.2,1.9,0.4c0.3,0.2,0.4,0.7,0.4,1.4
			c0,0.9-0.2,1.5-0.5,1.7S31.5,10,30.4,10c-1,0-1.7-0.1-2.1-0.4s-0.5-0.8-0.5-1.5l0-0.2H29l0,0.1c0,0.5,0.1,0.8,0.2,0.9
			C29.4,8.9,29.9,9,30.6,9c0.6,0,0.9-0.1,1.1-0.2c0.2-0.1,0.2-0.4,0.2-0.8c0-0.3-0.1-0.5-0.2-0.6c-0.1-0.1-0.4-0.2-0.8-0.2l-0.7,0
			c-1.1-0.1-1.7-0.2-2-0.4c-0.3-0.2-0.4-0.7-0.4-1.5c0-0.8,0.2-1.3,0.5-1.6s1.1-0.4,2.1-0.4c1,0,1.7,0.1,2,0.4
			C32.8,3.8,33,4.3,33,4.9V5.2z"/>
		<path class="st2" d="M36.8,3.2c1.2,0,2,0.2,2.3,0.6c0.3,0.4,0.5,1.3,0.5,2.7c0,1.5-0.2,2.5-0.5,2.9c-0.4,0.4-1.2,0.6-2.5,0.6
			c-1.2,0-2-0.2-2.3-0.6c-0.4-0.4-0.5-1.3-0.5-2.6c0-1.6,0.2-2.6,0.5-3C34.6,3.4,35.4,3.2,36.8,3.2z M36.7,4.3
			c-0.8,0-1.3,0.1-1.5,0.3c-0.1,0.2-0.2,1-0.2,2.3c0,1,0.1,1.5,0.3,1.7s0.7,0.3,1.5,0.3c0.8,0,1.3-0.1,1.4-0.3s0.2-0.9,0.2-2
			c0-1.1-0.1-1.8-0.2-2C38,4.4,37.5,4.3,36.7,4.3z"/>
		<path class="st2" d="M44.6,7.5h1.3v0.2c0,0.9-0.2,1.5-0.5,1.8c-0.3,0.3-1.1,0.4-2.2,0.4c-1.3,0-2.1-0.2-2.4-0.6s-0.5-1.6-0.5-3.4
			c0-1.1,0.2-1.8,0.6-2.2s1.3-0.5,2.6-0.5c1,0,1.6,0.1,1.9,0.4c0.3,0.3,0.5,0.9,0.5,1.7l0,0.2h-1.3V5.3c0-0.4-0.1-0.7-0.2-0.8
			s-0.5-0.2-1.1-0.2c-0.8,0-1.3,0.1-1.4,0.3c-0.2,0.2-0.2,0.8-0.2,1.7c0,1.3,0.1,2,0.2,2.3s0.6,0.4,1.4,0.4c0.6,0,1-0.1,1.2-0.2
			c0.2-0.1,0.3-0.4,0.3-0.9L44.6,7.5z"/>
		<path class="st2" d="M48,3.3v6.7h-1.3V3.3H48z"/>
		<path class="st2" d="M53.2,8.6h-2.9l-0.4,1.3h-1.3l2.2-6.7h1.9l2.3,6.7h-1.3L53.2,8.6z M52.9,7.7l-1.2-3.5l-1.1,3.5H52.9z"/>
		<path class="st2" d="M56.8,3.3v5.5h3.1v1.1h-4.4V3.3H56.8z"/>
		<path class="st2" d="M70.8,3.3v6.7h-1.3V6.3c0-0.3,0-0.6,0-1l0-0.5l0-0.5h0l-0.2,0.5l-0.1,0.5C69.1,5.7,69,6,69,6.2l-1.5,3.8h-1.2
			l-1.5-3.7c-0.1-0.2-0.2-0.5-0.3-0.9l-0.2-0.5l-0.2-0.5h0l0,0.5l0,0.5c0,0.4,0,0.7,0,1v3.6H63V3.3h2.1l1.2,3.1
			c0.1,0.2,0.2,0.5,0.3,0.9l0.1,0.5l0.2,0.5h0l0.1-0.5l0.1-0.5c0.1-0.4,0.2-0.7,0.3-0.9l1.2-3.1H70.8z"/>
		<path class="st2" d="M73.1,4.3V6h3.1V7h-3.1v1.9h3.3v1.1h-4.6V3.3h4.6v1.1H73.1z"/>
		<path class="st2" d="M77.4,9.9V3.3h3.3c0.9,0,1.6,0.2,2,0.6C83,4.3,83.2,5,83.2,6c0,1.7-0.2,2.7-0.4,3.2c-0.3,0.5-1,0.7-2,0.7
			H77.4z M78.6,8.9h1.8c0.6,0,1-0.1,1.2-0.4c0.2-0.3,0.3-0.9,0.3-1.8c0-1-0.1-1.6-0.2-1.9c-0.2-0.3-0.5-0.4-1.1-0.4h-1.9V8.9z"/>
		<path class="st2" d="M85.4,3.3v6.7h-1.3V3.3H85.4z"/>
		<path class="st2" d="M90.6,8.6h-2.9l-0.4,1.3h-1.3l2.2-6.7h1.9l2.3,6.7H91L90.6,8.6z M90.3,7.7l-1.2-3.5L88,7.7H90.3z"/>
		<path class="st2" d="M94,8.7v1.2c0,0.8-0.3,1.2-1,1.2c0,0-0.1,0-0.2,0v-0.5c0.4,0,0.5-0.1,0.5-0.4l0-0.1h-0.4V8.7H94z"/>
		<path class="st2" d="M18.5,19.9v-6.7h2.7h0.3c0.9,0,1.5,0.2,1.8,0.5c0.3,0.3,0.5,0.9,0.5,1.8c0,0.9-0.1,1.5-0.4,1.8
			s-0.9,0.4-1.8,0.4l-0.3,0h-1.5v2.2H18.5z M19.8,16.7h1.4c0.6,0,0.9-0.1,1.1-0.2s0.2-0.4,0.2-0.9c0-0.6-0.1-0.9-0.2-1
			c-0.1-0.1-0.5-0.2-1-0.2h-1.6V16.7z"/>
		<path class="st2" d="M28.9,13.3h1.3v4.4c0,0.9-0.2,1.5-0.5,1.8c-0.4,0.3-1.1,0.4-2.2,0.4c-1.2,0-1.9-0.1-2.3-0.4s-0.5-0.9-0.5-1.8
			v-4.5h1.3v4.5c0,0.5,0.1,0.8,0.3,0.9s0.6,0.2,1.2,0.2c0.7,0,1.1-0.1,1.3-0.2c0.2-0.1,0.3-0.5,0.3-1V13.3z"/>
		<path class="st2" d="M31.4,19.9v-6.7h3.3c0.8,0,1.3,0.1,1.6,0.4c0.3,0.2,0.4,0.7,0.4,1.4c0,0.8-0.3,1.3-1,1.5v0
			c0.8,0.1,1.1,0.6,1.1,1.6c0,0.7-0.1,1.2-0.4,1.4s-0.8,0.4-1.5,0.4H31.4z M32.6,16h1.5c0.5,0,0.8-0.1,1-0.2
			c0.1-0.1,0.2-0.4,0.2-0.8c0-0.5-0.3-0.8-0.9-0.8h-1.8V16z M32.6,18.9H34l0.4,0c0.4,0,0.7-0.1,0.8-0.2c0.1-0.1,0.2-0.4,0.2-0.8
			c0-0.4-0.1-0.7-0.2-0.8c-0.1-0.1-0.5-0.2-1-0.2h-1.6V18.9z"/>
		<path class="st2" d="M39,13.3v5.5h3.1v1.1h-4.4v-6.7H39z"/>
		<path class="st2" d="M44,13.3v6.7h-1.3v-6.7H44z"/>
		<path class="st2" d="M49.3,17.5h1.3v0.2c0,0.9-0.2,1.5-0.5,1.8C49.7,19.8,49,20,47.8,20c-1.3,0-2.1-0.2-2.4-0.6s-0.5-1.6-0.5-3.4
			c0-1.1,0.2-1.8,0.6-2.2s1.3-0.5,2.6-0.5c1,0,1.6,0.1,1.9,0.4c0.3,0.3,0.5,0.9,0.5,1.7l0,0.2h-1.3v-0.2c0-0.4-0.1-0.7-0.2-0.8
			s-0.5-0.2-1.1-0.2c-0.8,0-1.3,0.1-1.4,0.3c-0.2,0.2-0.2,0.8-0.2,1.7c0,1.3,0.1,2,0.2,2.3s0.6,0.4,1.4,0.4c0.6,0,1-0.1,1.2-0.2
			c0.2-0.1,0.3-0.4,0.3-0.9L49.3,17.5z"/>
		<path class="st2" d="M53.9,19.9v-6.7h3.3c0.8,0,1.4,0.1,1.7,0.4s0.5,0.8,0.5,1.5c0,0.7-0.1,1.1-0.2,1.4c-0.2,0.2-0.5,0.4-0.9,0.5
			v0c0.7,0,1.1,0.5,1.1,1.3v1.5H58v-1.2c0-0.7-0.3-1-1-1h-1.8v2.2H53.9z M55.1,16.6h1.8c0.4,0,0.7-0.1,0.9-0.2
			c0.1-0.2,0.2-0.5,0.2-0.9c0-0.5-0.1-0.8-0.2-0.9c-0.1-0.1-0.4-0.2-0.8-0.2h-1.9V16.6z"/>
		<path class="st2" d="M61.4,14.3V16h3.1V17h-3.1v1.9h3.3v1.1h-4.6v-6.7h4.6v1.1H61.4z"/>
		<path class="st2" d="M67,13.3v5.5h3.1v1.1h-4.4v-6.7H67z"/>
		<path class="st2" d="M74.8,18.6h-2.9l-0.4,1.3h-1.3l2.2-6.7h1.9l2.3,6.7h-1.3L74.8,18.6z M74.5,17.7l-1.2-3.5l-1.1,3.5H74.5z"/>
		<path class="st2" d="M79.7,14.4v5.5h-1.3v-5.5h-1.9v-1.1h5.2v1.1H79.7z"/>
		<path class="st2" d="M83.6,13.3v6.7h-1.3v-6.7H83.6z"/>
		<path class="st2" d="M87.6,13.2c1.2,0,2,0.2,2.3,0.6c0.3,0.4,0.5,1.3,0.5,2.7c0,1.5-0.2,2.5-0.5,2.9c-0.3,0.4-1.2,0.6-2.5,0.6
			c-1.2,0-2-0.2-2.3-0.6c-0.4-0.4-0.5-1.3-0.5-2.6c0-1.6,0.2-2.6,0.5-3C85.4,13.4,86.2,13.2,87.6,13.2z M87.5,14.3
			c-0.8,0-1.3,0.1-1.5,0.3c-0.1,0.2-0.2,1-0.2,2.3c0,1,0.1,1.5,0.3,1.7c0.2,0.2,0.7,0.3,1.5,0.3c0.8,0,1.3-0.1,1.4-0.3
			s0.2-0.9,0.2-2c0-1.1-0.1-1.8-0.2-2C88.8,14.4,88.3,14.3,87.5,14.3z"/>
		<path class="st2" d="M97.5,13.3v6.7h-2.1l-1.9-3.7c-0.1-0.2-0.2-0.5-0.4-1l-0.2-0.5l-0.2-0.5h0l0,0.4l0,0.4l0,0.9v3.8h-1.3v-6.7
			h2.1l1.7,3.4c0.2,0.3,0.3,0.7,0.5,1.1l0.3,0.5l0.3,0.5h0l0-0.4l0-0.4l0-0.9v-3.8H97.5z"/>
		<path class="st2" d="M103.6,15.2h-1.2c0-0.1,0-0.1,0-0.1c0-0.4-0.1-0.6-0.2-0.7c-0.1-0.1-0.5-0.1-1-0.1c-0.6,0-1,0.1-1.2,0.2
			c-0.2,0.1-0.3,0.3-0.3,0.7c0,0.4,0.1,0.7,0.2,0.8c0.1,0.1,0.6,0.2,1.5,0.2c1,0.1,1.6,0.2,1.9,0.4c0.3,0.2,0.4,0.7,0.4,1.4
			c0,0.9-0.2,1.5-0.5,1.7S102.2,20,101,20c-1,0-1.7-0.1-2.1-0.4c-0.3-0.3-0.5-0.8-0.5-1.5l0-0.2h1.2l0,0.1c0,0.5,0.1,0.8,0.2,0.9
			c0.2,0.1,0.6,0.2,1.3,0.2c0.6,0,0.9-0.1,1.1-0.2c0.2-0.1,0.2-0.4,0.2-0.8c0-0.3-0.1-0.5-0.2-0.6c-0.1-0.1-0.4-0.2-0.8-0.2l-0.7,0
			c-1.1-0.1-1.7-0.2-2-0.4c-0.3-0.2-0.4-0.7-0.4-1.5c0-0.8,0.2-1.3,0.5-1.6c0.4-0.3,1.1-0.4,2.1-0.4c1,0,1.7,0.1,2,0.4
			c0.3,0.2,0.5,0.7,0.5,1.4V15.2z"/>
	</g>
	<g class="st1">
		<path class="st2" d="M43.6,14.9V8.3h3.3c0.8,0,1.4,0.1,1.7,0.4S49,9.5,49,10.2c0,0.7-0.1,1.1-0.2,1.4c-0.2,0.2-0.5,0.4-0.9,0.5v0
			c0.7,0,1.1,0.5,1.1,1.3v1.5h-1.3v-1.2c0-0.7-0.3-1-1-1h-1.8v2.2H43.6z M44.8,11.6h1.8c0.4,0,0.7-0.1,0.9-0.2
			c0.1-0.2,0.2-0.5,0.2-0.9c0-0.5-0.1-0.8-0.2-0.9c-0.1-0.1-0.4-0.2-0.8-0.2h-1.9V11.6z"/>
		<path class="st2" d="M52.8,8.2c1.2,0,2,0.2,2.3,0.6c0.3,0.4,0.5,1.3,0.5,2.7c0,1.5-0.2,2.5-0.5,2.9c-0.4,0.4-1.2,0.6-2.5,0.6
			c-1.2,0-2-0.2-2.3-0.6c-0.4-0.4-0.5-1.3-0.5-2.6c0-1.6,0.2-2.6,0.5-3C50.6,8.4,51.4,8.2,52.8,8.2z M52.7,9.3
			c-0.8,0-1.3,0.1-1.5,0.3c-0.1,0.2-0.2,1-0.2,2.3c0,1,0.1,1.5,0.3,1.7s0.7,0.3,1.5,0.3c0.8,0,1.3-0.1,1.4-0.3s0.2-0.9,0.2-2
			c0-1.1-0.1-1.8-0.2-2C54,9.4,53.5,9.3,52.7,9.3z"/>
		<path class="st2" d="M61.4,10.2h-1.2c0-0.1,0-0.1,0-0.1c0-0.4-0.1-0.6-0.2-0.7c-0.1-0.1-0.5-0.1-1-0.1c-0.6,0-1,0.1-1.2,0.2
			c-0.2,0.1-0.3,0.3-0.3,0.7c0,0.4,0.1,0.7,0.2,0.8c0.1,0.1,0.6,0.2,1.5,0.2c1,0.1,1.6,0.2,1.9,0.4c0.3,0.2,0.4,0.7,0.4,1.4
			c0,0.9-0.2,1.5-0.5,1.7S60,15,58.8,15c-1,0-1.7-0.1-2.1-0.4s-0.5-0.8-0.5-1.5l0-0.2h1.2l0,0.1c0,0.5,0.1,0.8,0.2,0.9
			c0.2,0.1,0.6,0.2,1.3,0.2c0.6,0,0.9-0.1,1.1-0.2c0.2-0.1,0.2-0.4,0.2-0.8c0-0.3-0.1-0.5-0.2-0.6c-0.1-0.1-0.4-0.2-0.8-0.2l-0.7,0
			c-1.1-0.1-1.7-0.2-2-0.4c-0.3-0.2-0.4-0.7-0.4-1.5c0-0.8,0.2-1.3,0.5-1.6s1.1-0.4,2.1-0.4c1,0,1.7,0.1,2,0.4
			c0.3,0.2,0.5,0.7,0.5,1.4V10.2z"/>
		<path class="st2" d="M65.1,9.4v5.5h-1.3V9.4h-1.9V8.3h5.2v1.1H65.1z"/>
		<path class="st2" d="M68.9,9.3V11H72V12h-3.1v1.9h3.3v1.1h-4.6V8.3h4.6v1.1H68.9z"/>
		<path class="st2" d="M73.2,14.9V8.3h3.3c0.8,0,1.4,0.1,1.7,0.4c0.3,0.3,0.5,0.8,0.5,1.5c0,0.7-0.1,1.1-0.2,1.4
			c-0.2,0.2-0.5,0.4-0.9,0.5v0c0.7,0,1.1,0.5,1.1,1.3v1.5h-1.3v-1.2c0-0.7-0.3-1-1-1h-1.8v2.2H73.2z M74.4,11.6h1.8
			c0.4,0,0.7-0.1,0.9-0.2c0.1-0.2,0.2-0.5,0.2-0.9c0-0.5-0.1-0.8-0.2-0.9c-0.1-0.1-0.4-0.2-0.8-0.2h-1.9V11.6z"/>
	</g>
	<g class="st1">
		<path class="st2" d="M41.2,12.5h1.3v0.2c0,0.9-0.2,1.5-0.5,1.8c-0.3,0.3-1.1,0.4-2.2,0.4c-1.3,0-2.1-0.2-2.4-0.6s-0.5-1.6-0.5-3.4
			c0-1.1,0.2-1.8,0.6-2.2s1.3-0.5,2.6-0.5c1,0,1.6,0.1,1.9,0.4s0.5,0.9,0.5,1.7l0,0.2h-1.3v-0.2c0-0.4-0.1-0.7-0.2-0.8
			s-0.5-0.2-1.1-0.2c-0.8,0-1.3,0.1-1.4,0.3s-0.2,0.8-0.2,1.7c0,1.3,0.1,2,0.2,2.3s0.6,0.4,1.4,0.4c0.6,0,1-0.1,1.2-0.2
			c0.2-0.1,0.3-0.4,0.3-0.9L41.2,12.5z"/>
		<path class="st2" d="M46.1,8.2c1.2,0,2,0.2,2.3,0.6s0.5,1.3,0.5,2.7c0,1.5-0.2,2.5-0.5,2.9c-0.4,0.4-1.2,0.6-2.5,0.6
			c-1.2,0-2-0.2-2.3-0.6C43.2,14,43,13.1,43,11.8c0-1.6,0.2-2.6,0.5-3S44.7,8.2,46.1,8.2z M46,9.3c-0.8,0-1.3,0.1-1.5,0.3
			s-0.2,1-0.2,2.3c0,1,0.1,1.5,0.3,1.7s0.7,0.3,1.5,0.3c0.8,0,1.3-0.1,1.4-0.3s0.2-0.9,0.2-2c0-1.1-0.1-1.8-0.2-2S46.8,9.3,46,9.3z"
			/>
		<path class="st2" d="M56,8.3v6.7h-2.1l-1.9-3.7c-0.1-0.2-0.2-0.5-0.4-1l-0.2-0.5l-0.2-0.5h0l0,0.4l0,0.4l0,0.9v3.8h-1.3V8.3h2.1
			l1.7,3.4c0.2,0.3,0.3,0.7,0.5,1.1l0.3,0.5l0.3,0.5h0l0-0.4l0-0.4l0-0.9V8.3H56z"/>
		<path class="st2" d="M62.1,10.2h-1.2c0-0.1,0-0.1,0-0.1c0-0.4-0.1-0.6-0.2-0.7s-0.5-0.1-1-0.1c-0.6,0-1,0.1-1.2,0.2
			s-0.3,0.3-0.3,0.7c0,0.4,0.1,0.7,0.2,0.8s0.6,0.1,1.5,0.2c1,0.1,1.6,0.2,1.9,0.4s0.4,0.7,0.4,1.4c0,0.9-0.2,1.5-0.5,1.7
			S60.7,15,59.5,15c-1,0-1.7-0.1-2.1-0.4s-0.5-0.8-0.5-1.5l0-0.2h1.2l0,0.1c0,0.5,0.1,0.8,0.2,0.9c0.2,0.1,0.6,0.2,1.3,0.2
			c0.6,0,0.9-0.1,1.1-0.2c0.2-0.1,0.2-0.4,0.2-0.8c0-0.3-0.1-0.5-0.2-0.6c-0.1-0.1-0.4-0.2-0.8-0.2l-0.7,0c-1.1-0.1-1.7-0.2-2-0.4
			s-0.4-0.7-0.4-1.5c0-0.8,0.2-1.3,0.5-1.6s1.1-0.4,2.1-0.4c1,0,1.7,0.1,2,0.4s0.5,0.7,0.5,1.4V10.2z"/>
		<path class="st2" d="M65.9,8.2c1.2,0,2,0.2,2.3,0.6c0.3,0.4,0.5,1.3,0.5,2.7c0,1.5-0.2,2.5-0.5,2.9C67.9,14.8,67,15,65.7,15
			c-1.2,0-2-0.2-2.3-0.6c-0.4-0.4-0.5-1.3-0.5-2.6c0-1.6,0.2-2.6,0.5-3C63.7,8.4,64.5,8.2,65.9,8.2z M65.8,9.3
			c-0.8,0-1.3,0.1-1.5,0.3c-0.1,0.2-0.2,1-0.2,2.3c0,1,0.1,1.5,0.3,1.7c0.2,0.2,0.7,0.3,1.5,0.3c0.8,0,1.3-0.1,1.4-0.3
			s0.2-0.9,0.2-2c0-1.1-0.1-1.8-0.2-2C67.1,9.4,66.6,9.3,65.8,9.3z"/>
		<path class="st2" d="M70.9,8.3v5.5H74v1.1h-4.4V8.3H70.9z"/>
		<path class="st2" d="M75.8,9.3V11h3.1V12h-3.1v1.9h3.3v1.1h-4.6V8.3h4.6v1.1H75.8z"/>
		<path class="st2" d="M85,10.2h-1.2c0-0.1,0-0.1,0-0.1c0-0.4-0.1-0.6-0.2-0.7s-0.5-0.1-1-0.1c-0.6,0-1,0.1-1.2,0.2
			c-0.2,0.1-0.3,0.3-0.3,0.7c0,0.4,0.1,0.7,0.2,0.8c0.1,0.1,0.6,0.1,1.5,0.2c1,0.1,1.6,0.2,1.9,0.4c0.3,0.2,0.4,0.7,0.4,1.4
			c0,0.9-0.2,1.5-0.5,1.7S83.6,15,82.4,15c-1,0-1.7-0.1-2.1-0.4c-0.3-0.3-0.5-0.8-0.5-1.5l0-0.2H81l0,0.1c0,0.5,0.1,0.8,0.2,0.9
			c0.2,0.1,0.6,0.2,1.3,0.2c0.6,0,0.9-0.1,1.1-0.2c0.2-0.1,0.2-0.4,0.2-0.8c0-0.3-0.1-0.5-0.2-0.6c-0.1-0.1-0.4-0.2-0.8-0.2l-0.7,0
			c-1.1-0.1-1.7-0.2-2-0.4s-0.4-0.7-0.4-1.5c0-0.8,0.2-1.3,0.5-1.6c0.4-0.3,1.1-0.4,2.1-0.4c1,0,1.7,0.1,2,0.4
			C84.8,8.8,85,9.3,85,9.9V10.2z"/>
	</g>
	<g class="st1">
		<path class="st2" d="M49.2,9.3V11h3.1V12h-3.1v1.9h3.3v1.1h-4.6V8.3h4.6v1.1H49.2z"/>
		<path class="st2" d="M53.5,14.9V8.3h3.3c0.9,0,1.6,0.2,2,0.6s0.6,1.1,0.6,2.1c0,1.7-0.1,2.7-0.4,3.2s-1,0.7-2,0.7H53.5z
			 M54.7,13.9h1.8c0.6,0,1-0.1,1.2-0.4s0.3-0.9,0.3-1.8c0-1-0.1-1.6-0.2-1.9s-0.5-0.4-1.1-0.4h-1.9V13.9z"/>
		<path class="st2" d="M65.1,10.2h-1.2c0-0.1,0-0.1,0-0.1c0-0.4-0.1-0.6-0.2-0.7s-0.5-0.1-1-0.1c-0.6,0-1,0.1-1.2,0.2
			s-0.3,0.3-0.3,0.7c0,0.4,0.1,0.7,0.2,0.8s0.6,0.1,1.5,0.2c1,0.1,1.6,0.2,1.9,0.4c0.3,0.2,0.4,0.7,0.4,1.4c0,0.9-0.2,1.5-0.5,1.7
			S63.7,15,62.5,15c-1,0-1.7-0.1-2.1-0.4s-0.5-0.8-0.5-1.5l0-0.2h1.2l0,0.1c0,0.5,0.1,0.8,0.2,0.9c0.2,0.1,0.6,0.2,1.3,0.2
			c0.6,0,0.9-0.1,1.1-0.2c0.2-0.1,0.2-0.4,0.2-0.8c0-0.3-0.1-0.5-0.2-0.6c-0.1-0.1-0.4-0.2-0.8-0.2l-0.7,0c-1.1-0.1-1.7-0.2-2-0.4
			s-0.4-0.7-0.4-1.5c0-0.8,0.2-1.3,0.5-1.6s1.1-0.4,2.1-0.4c1,0,1.7,0.1,2,0.4c0.3,0.2,0.5,0.7,0.5,1.4V10.2z"/>
		<path class="st2" d="M73.9,8.3v6.7h-1.3v-3.6c0-0.3,0-0.6,0-1l0-0.5l0-0.5h0l-0.2,0.5l-0.1,0.5c-0.1,0.4-0.2,0.7-0.3,0.9l-1.5,3.8
			h-1.2L68,11.2c-0.1-0.2-0.2-0.5-0.3-0.9l-0.2-0.5l-0.2-0.5h0l0,0.5l0,0.5c0,0.4,0,0.7,0,1v3.6h-1.3V8.3h2.1l1.2,3.1
			c0.1,0.2,0.2,0.5,0.3,0.9l0.1,0.5l0.2,0.5h0l0.1-0.5l0.1-0.5c0.1-0.4,0.2-0.7,0.3-0.9l1.2-3.1H73.9z"/>
	</g>
	<g>
		<path class="st3" d="M43,10.4h2.9l0,1.3c0,1-0.2,1.6-0.5,1.9S44.2,14,43,14c-1.2,0-1.9-0.2-2.3-0.6s-0.6-1.1-0.6-2.3
			c0-1.5,0.1-2.4,0.2-2.8c0.2-0.5,0.5-0.8,0.8-0.9s1-0.2,1.9-0.2c1.2,0,1.9,0.1,2.3,0.4s0.5,0.8,0.5,1.7h-1.3c0-0.4-0.1-0.7-0.3-0.8
			s-0.6-0.2-1.3-0.2c-0.7,0-1.2,0.1-1.4,0.3s-0.3,0.6-0.3,1.3l0,0.7l0,0.9c0,0.7,0.1,1.1,0.3,1.3s0.6,0.3,1.4,0.3
			c0.7,0,1.1-0.1,1.3-0.2c0.2-0.2,0.3-0.5,0.3-1.1l0-0.3H43V10.4z"/>
		<path class="st3" d="M48,8.3V10h3.1V11H48v1.9h3.3v1.1h-4.6V7.3h4.6v1.1H48z"/>
		<path class="st3" d="M58.4,7.3v6.7h-2.1l-1.9-3.7c-0.1-0.2-0.2-0.5-0.4-1l-0.2-0.5l-0.2-0.5h0l0,0.4l0,0.4l0,0.9v3.8h-1.3V7.3h2.1
			l1.7,3.4c0.2,0.3,0.3,0.7,0.5,1.1l0.3,0.5l0.3,0.5h0l0-0.4l0-0.4l0-0.9V7.3H58.4z"/>
		<path class="st3" d="M60.7,8.3V10h3.1V11h-3.1v1.9H64v1.1h-4.6V7.3H64v1.1H60.7z"/>
		<path class="st3" d="M65,13.9V7.3h3.3c0.8,0,1.4,0.1,1.7,0.4c0.3,0.3,0.5,0.8,0.5,1.5c0,0.7-0.1,1.1-0.2,1.4
			c-0.2,0.2-0.5,0.4-1,0.5v0c0.7,0,1.1,0.5,1.1,1.3v1.5h-1.3v-1.2c0-0.7-0.3-1-1-1h-1.8v2.2H65z M66.3,10.6h1.8
			c0.4,0,0.7-0.1,0.9-0.2s0.2-0.5,0.2-0.9c0-0.5-0.1-0.8-0.2-0.9s-0.4-0.2-0.8-0.2h-1.9V10.6z"/>
		<path class="st3" d="M75.5,12.6h-2.9l-0.4,1.3h-1.3l2.2-6.7H75l2.3,6.7h-1.3L75.5,12.6z M75.2,11.7L74,8.2l-1.1,3.5H75.2z"/>
		<path class="st3" d="M79,7.3v5.5h3.1v1.1h-4.4V7.3H79z"/>
	</g>
	<g class="st1">
		<path class="st2" d="M29.6,2.3l-1.8,6.7h-1.9L25,5.5c-0.1-0.3-0.2-0.7-0.3-1.2l-0.1-0.4h0l-0.1,0.4l-0.1,0.4
			c-0.1,0.3-0.1,0.6-0.2,0.8l-1,3.4h-1.9l-1.7-6.7h1.3l1,3.7c0.1,0.2,0.1,0.6,0.2,1l0.1,0.5l0.1,0.5h0c0.1-0.2,0.1-0.4,0.1-0.5
			l0.1-0.5c0.1-0.3,0.1-0.6,0.3-1l1-3.7h1.5l1,3.7c0.1,0.3,0.2,0.6,0.2,1l0.1,0.5l0.1,0.5h0l0.1-0.5L27,6.9c0.1-0.4,0.2-0.7,0.2-1
			l1-3.7H29.6z"/>
		<path class="st2" d="M31.3,3.3V5h3.1V6h-3.1v1.9h3.3v1.1H30V2.3h4.6v1.1H31.3z"/>
		<path class="st2" d="M35.5,8.9V2.3h3.3c0.8,0,1.3,0.1,1.6,0.4s0.4,0.7,0.4,1.4c0,0.8-0.3,1.3-1,1.5v0C40.6,5.6,41,6.1,41,7.1
			c0,0.7-0.1,1.2-0.4,1.4S39.7,8.9,39,8.9H35.5z M36.8,5.1h1.5c0.5,0,0.8-0.1,1-0.2s0.2-0.4,0.2-0.8c0-0.5-0.3-0.8-0.9-0.8h-1.8V5.1
			z M36.8,7.9h1.4l0.4,0c0.4,0,0.7-0.1,0.8-0.2s0.2-0.4,0.2-0.8c0-0.4-0.1-0.7-0.2-0.8S39,6,38.4,6h-1.6V7.9z"/>
		<path class="st2" d="M46.8,4.2h-1.2c0-0.1,0-0.1,0-0.1c0-0.4-0.1-0.6-0.2-0.7s-0.5-0.1-1-0.1c-0.6,0-1,0.1-1.2,0.2
			s-0.3,0.3-0.3,0.7c0,0.4,0.1,0.7,0.2,0.8S43.8,5,44.6,5c1,0.1,1.6,0.2,1.9,0.4S47,6.2,47,6.9c0,0.9-0.2,1.5-0.5,1.7S45.4,9,44.2,9
			c-1,0-1.7-0.1-2.1-0.4s-0.5-0.8-0.5-1.5l0-0.2h1.2l0,0.1c0,0.5,0.1,0.8,0.2,0.9S43.7,8,44.4,8c0.6,0,0.9-0.1,1.1-0.2
			s0.2-0.4,0.2-0.8c0-0.3-0.1-0.5-0.2-0.6s-0.4-0.2-0.8-0.2l-0.7,0c-1.1-0.1-1.7-0.2-2-0.4s-0.4-0.7-0.4-1.5c0-0.8,0.2-1.3,0.5-1.6
			s1.1-0.4,2.1-0.4c1,0,1.7,0.1,2,0.4s0.5,0.7,0.5,1.4V4.2z"/>
		<path class="st2" d="M49.1,2.3v6.7h-1.3V2.3H49.1z"/>
		<path class="st2" d="M53,3.4v5.5h-1.3V3.4h-1.9V2.3H55v1.1H53z"/>
		<path class="st2" d="M56.7,3.3V5h3.1V6h-3.1v1.9h3.3v1.1h-4.6V2.3H60v1.1H56.7z"/>
		<path class="st2" d="M62.1,7.7v1.2c0,0.8-0.3,1.2-1,1.2c0,0-0.1,0-0.2,0V9.5c0.4,0,0.5-0.1,0.5-0.4l0-0.1H61V7.7H62.1z"/>
		<path class="st2" d="M69.8,7.6h-2.9l-0.4,1.3h-1.3l2.2-6.7h1.9l2.3,6.7h-1.3L69.8,7.6z M69.5,6.7l-1.2-3.5l-1.1,3.5H69.5z"/>
		<path class="st2" d="M77,4.2h-1.2c0-0.1,0-0.1,0-0.1c0-0.4-0.1-0.6-0.2-0.7s-0.5-0.1-1-0.1c-0.6,0-1,0.1-1.2,0.2
			c-0.2,0.1-0.3,0.3-0.3,0.7c0,0.4,0.1,0.7,0.2,0.8C73.5,4.9,74,5,74.8,5c1,0.1,1.6,0.2,1.9,0.4c0.3,0.2,0.4,0.7,0.4,1.4
			c0,0.9-0.2,1.5-0.5,1.7S75.6,9,74.4,9c-1,0-1.7-0.1-2.1-0.4c-0.3-0.3-0.5-0.8-0.5-1.5l0-0.2h1.2l0,0.1c0,0.5,0.1,0.8,0.2,0.9
			C73.5,7.9,73.9,8,74.6,8c0.6,0,0.9-0.1,1.1-0.2S76,7.4,76,6.9c0-0.3-0.1-0.5-0.2-0.6c-0.1-0.1-0.4-0.2-0.8-0.2l-0.7,0
			c-1.1-0.1-1.7-0.2-2-0.4s-0.4-0.7-0.4-1.5c0-0.8,0.2-1.3,0.5-1.6c0.4-0.3,1.1-0.4,2.1-0.4c1,0,1.7,0.1,2,0.4
			C76.9,2.8,77,3.3,77,3.9V4.2z"/>
		<path class="st2" d="M83,4.2h-1.2c0-0.1,0-0.1,0-0.1c0-0.4-0.1-0.6-0.2-0.7s-0.5-0.1-1-0.1c-0.6,0-1,0.1-1.2,0.2
			c-0.2,0.1-0.3,0.3-0.3,0.7c0,0.4,0.1,0.7,0.2,0.8C79.5,4.9,80,5,80.8,5c1,0.1,1.6,0.2,1.9,0.4c0.3,0.2,0.4,0.7,0.4,1.4
			c0,0.9-0.2,1.5-0.5,1.7S81.6,9,80.4,9c-1,0-1.7-0.1-2.1-0.4c-0.3-0.3-0.5-0.8-0.5-1.5l0-0.2H79l0,0.1c0,0.5,0.1,0.8,0.2,0.9
			C79.5,7.9,79.9,8,80.6,8c0.6,0,0.9-0.1,1.1-0.2s0.2-0.4,0.2-0.8c0-0.3-0.1-0.5-0.2-0.6c-0.1-0.1-0.4-0.2-0.8-0.2l-0.7,0
			c-1.1-0.1-1.7-0.2-2-0.4s-0.4-0.7-0.4-1.5c0-0.8,0.2-1.3,0.5-1.6c0.4-0.3,1.1-0.4,2.1-0.4c1,0,1.7,0.1,2,0.4
			C82.9,2.8,83,3.3,83,3.9V4.2z"/>
		<path class="st2" d="M85.2,3.3V5h3.1V6h-3.1v1.9h3.3v1.1h-4.6V2.3h4.6v1.1H85.2z"/>
		<path class="st2" d="M92.1,3.4v5.5h-1.3V3.4h-1.9V2.3h5.2v1.1H92.1z"/>
		<path class="st2" d="M99.7,4.2h-1.2c0-0.1,0-0.1,0-0.1c0-0.4-0.1-0.6-0.2-0.7s-0.5-0.1-1-0.1c-0.6,0-1,0.1-1.2,0.2
			c-0.2,0.1-0.3,0.3-0.3,0.7c0,0.4,0.1,0.7,0.2,0.8C96.2,4.9,96.7,5,97.5,5c1,0.1,1.6,0.2,1.9,0.4c0.3,0.2,0.4,0.7,0.4,1.4
			c0,0.9-0.2,1.5-0.5,1.7S98.3,9,97.1,9c-1,0-1.7-0.1-2.1-0.4c-0.3-0.3-0.5-0.8-0.5-1.5l0-0.2h1.2l0,0.1c0,0.5,0.1,0.8,0.2,0.9
			C96.1,7.9,96.6,8,97.3,8c0.6,0,0.9-0.1,1.1-0.2s0.2-0.4,0.2-0.8c0-0.3-0.1-0.5-0.2-0.6c-0.1-0.1-0.4-0.2-0.8-0.2l-0.7,0
			c-1.1-0.1-1.7-0.2-2-0.4s-0.4-0.7-0.4-1.5c0-0.8,0.2-1.3,0.5-1.6c0.4-0.3,1.1-0.4,2.1-0.4c1,0,1.7,0.1,2,0.4
			c0.3,0.2,0.5,0.7,0.5,1.4V4.2z"/>
		<path class="st2" d="M101.8,7.7v1.2c0,0.8-0.3,1.2-1,1.2c0,0-0.1,0-0.2,0V9.5c0.4,0,0.5-0.1,0.5-0.4l0-0.1h-0.4V7.7H101.8z"/>
		<path class="st2" d="M34,12.3v6.7h-1.3v-3.6c0-0.3,0-0.6,0-1l0-0.5l0-0.5h0l-0.2,0.5l-0.1,0.5c-0.1,0.4-0.2,0.7-0.3,0.9l-1.5,3.8
			h-1.2l-1.5-3.7c-0.1-0.2-0.2-0.5-0.3-0.9l-0.2-0.5l-0.2-0.5h0l0,0.5l0,0.5c0,0.4,0,0.7,0,1v3.6h-1.3v-6.7h2.1l1.2,3.1
			c0.1,0.2,0.2,0.5,0.3,0.9l0.1,0.5l0.2,0.5h0l0.1-0.5l0.1-0.5c0.1-0.4,0.2-0.7,0.3-0.9l1.2-3.1H34z"/>
		<path class="st2" d="M36.3,13.3V15h3.1V16h-3.1v1.9h3.3v1.1h-4.6v-6.7h4.6v1.1H36.3z"/>
		<path class="st2" d="M40.6,18.9v-6.7h3.3c0.8,0,1.4,0.1,1.7,0.4s0.5,0.8,0.5,1.5c0,0.7-0.1,1.1-0.2,1.4c-0.2,0.2-0.5,0.4-0.9,0.5
			v0c0.7,0,1.1,0.5,1.1,1.3v1.5h-1.3v-1.2c0-0.7-0.3-1-1-1h-1.8v2.2H40.6z M41.9,15.6h1.8c0.4,0,0.7-0.1,0.9-0.2
			c0.1-0.2,0.2-0.5,0.2-0.9c0-0.5-0.1-0.8-0.2-0.9c-0.1-0.1-0.4-0.2-0.8-0.2h-1.9V15.6z"/>
		<path class="st2" d="M51.2,16.5h1.3v0.2c0,0.9-0.2,1.5-0.5,1.8c-0.3,0.3-1.1,0.4-2.2,0.4c-1.3,0-2.1-0.2-2.4-0.6s-0.5-1.6-0.5-3.4
			c0-1.1,0.2-1.8,0.6-2.2s1.3-0.5,2.6-0.5c1,0,1.6,0.1,1.9,0.4c0.3,0.3,0.5,0.9,0.5,1.7l0,0.2h-1.3v-0.2c0-0.4-0.1-0.7-0.2-0.8
			s-0.5-0.2-1.1-0.2c-0.8,0-1.3,0.1-1.4,0.3c-0.2,0.2-0.2,0.8-0.2,1.7c0,1.3,0.1,2,0.2,2.3s0.6,0.4,1.4,0.4c0.6,0,1-0.1,1.2-0.2
			c0.2-0.1,0.3-0.4,0.3-0.9L51.2,16.5z"/>
		<path class="st2" d="M58.9,12.3v6.7h-1.3V16h-3.1v2.9h-1.3v-6.7h1.3V15h3.1v-2.7H58.9z"/>
		<path class="st2" d="M61.1,17.7v1.2c0,0.8-0.3,1.2-1,1.2c0,0-0.1,0-0.2,0v-0.5c0.4,0,0.5-0.2,0.5-0.4l0-0.1H60v-1.2H61.1z"/>
		<path class="st2" d="M64.8,18.9v-6.7h2.7h0.3c0.9,0,1.5,0.2,1.8,0.5c0.3,0.3,0.5,0.9,0.5,1.8c0,0.9-0.1,1.5-0.4,1.8
			c-0.3,0.3-0.9,0.4-1.8,0.4l-0.3,0H66v2.2H64.8z M66,15.7h1.4c0.6,0,0.9-0.1,1.1-0.2c0.2-0.1,0.2-0.4,0.2-0.9c0-0.6-0.1-0.9-0.2-1
			c-0.1-0.1-0.5-0.2-1-0.2H66V15.7z"/>
		<path class="st2" d="M70.9,18.9v-6.7h3.3c0.8,0,1.4,0.1,1.7,0.4c0.3,0.3,0.5,0.8,0.5,1.5c0,0.7-0.1,1.1-0.2,1.4
			c-0.2,0.2-0.5,0.4-1,0.5v0c0.7,0,1.1,0.5,1.1,1.3v1.5H75v-1.2c0-0.7-0.3-1-1-1h-1.8v2.2H70.9z M72.2,15.6H74
			c0.4,0,0.7-0.1,0.9-0.2c0.1-0.2,0.2-0.5,0.2-0.9c0-0.5-0.1-0.8-0.2-0.9c-0.1-0.1-0.4-0.2-0.8-0.2h-1.9V15.6z"/>
		<path class="st2" d="M78.6,12.3v6.7h-1.3v-6.7H78.6z"/>
		<path class="st2" d="M84.7,12.3v1.1L81,17.8v0h3.7v1.1h-5.3v-1.1l3.7-4.5v0h-3.5v-1.1H84.7z"/>
		<path class="st2" d="M86.7,13.3V15h3.1V16h-3.1v1.9H90v1.1h-4.6v-6.7H90v1.1H86.7z"/>
		<path class="st2" d="M95.9,14.2h-1.2c0-0.1,0-0.1,0-0.1c0-0.4-0.1-0.6-0.2-0.7c-0.1-0.1-0.5-0.1-1-0.1c-0.6,0-1,0.1-1.2,0.2
			c-0.2,0.1-0.3,0.3-0.3,0.7c0,0.4,0.1,0.7,0.2,0.8c0.2,0.1,0.6,0.1,1.5,0.2c1,0.1,1.6,0.2,1.9,0.4c0.3,0.2,0.4,0.7,0.4,1.4
			c0,0.9-0.2,1.5-0.5,1.7S94.5,19,93.3,19c-1,0-1.7-0.1-2.1-0.4c-0.3-0.3-0.5-0.8-0.5-1.5l0-0.2h1.2l0,0.1c0,0.5,0.1,0.8,0.2,0.9
			c0.2,0.1,0.6,0.2,1.3,0.2c0.6,0,0.9-0.1,1.1-0.2c0.2-0.1,0.2-0.4,0.2-0.8c0-0.3-0.1-0.5-0.2-0.6c-0.1-0.1-0.4-0.2-0.8-0.2l-0.7,0
			c-1.1-0.1-1.7-0.2-2-0.4c-0.3-0.2-0.4-0.7-0.4-1.5c0-0.8,0.2-1.3,0.5-1.6c0.4-0.3,1.1-0.4,2.1-0.4c1,0,1.7,0.1,2,0.4
			c0.3,0.2,0.5,0.7,0.5,1.4V14.2z"/>
	</g>
</g>
<g id="Calque_2" class="st1">
	<rect x="0" class="st2" width="122" height="22"/>
	<g>
		<path class="st4" d="M29.6,3.3l-1.8,6.7h-1.9L25,6.5c-0.1-0.3-0.2-0.7-0.3-1.2l-0.1-0.4h0l-0.1,0.4l-0.1,0.4
			c-0.1,0.3-0.1,0.6-0.2,0.8l-1,3.4h-1.9l-1.7-6.7h1.3l1,3.7c0.1,0.2,0.1,0.6,0.2,1l0.1,0.5l0.1,0.5h0c0.1-0.2,0.1-0.4,0.1-0.5
			l0.1-0.5c0.1-0.3,0.1-0.6,0.3-1l1-3.7h1.5l1,3.7c0.1,0.3,0.2,0.6,0.2,1l0.1,0.5l0.1,0.5h0l0.1-0.5L27,7.9c0.1-0.4,0.2-0.7,0.2-1
			l1-3.7H29.6z"/>
		<path class="st4" d="M31.3,4.3V6h3.1V7h-3.1v1.9h3.3v1.1H30V3.3h4.6v1.1H31.3z"/>
		<path class="st4" d="M35.5,9.9V3.3h3.3c0.8,0,1.3,0.1,1.6,0.4s0.4,0.7,0.4,1.4c0,0.8-0.3,1.3-1,1.5v0C40.6,6.6,41,7.1,41,8.1
			c0,0.7-0.1,1.2-0.4,1.4S39.7,9.9,39,9.9H35.5z M36.8,6.1h1.5c0.5,0,0.8-0.1,1-0.2s0.2-0.4,0.2-0.8c0-0.5-0.3-0.8-0.9-0.8h-1.8V6.1
			z M36.8,8.9h1.4l0.4,0c0.4,0,0.7-0.1,0.8-0.2s0.2-0.4,0.2-0.8c0-0.4-0.1-0.7-0.2-0.8S39,7,38.4,7h-1.6V8.9z"/>
		<path class="st4" d="M46.8,5.2h-1.2c0-0.1,0-0.1,0-0.1c0-0.4-0.1-0.6-0.2-0.7s-0.5-0.1-1-0.1c-0.6,0-1,0.1-1.2,0.2
			s-0.3,0.3-0.3,0.7c0,0.4,0.1,0.7,0.2,0.8S43.8,6,44.6,6c1,0.1,1.6,0.2,1.9,0.4S47,7.2,47,7.9c0,0.9-0.2,1.5-0.5,1.7
			S45.4,10,44.2,10c-1,0-1.7-0.1-2.1-0.4s-0.5-0.8-0.5-1.5l0-0.2h1.2l0,0.1c0,0.5,0.1,0.8,0.2,0.9S43.7,9,44.4,9
			c0.6,0,0.9-0.1,1.1-0.2s0.2-0.4,0.2-0.8c0-0.3-0.1-0.5-0.2-0.6s-0.4-0.2-0.8-0.2l-0.7,0c-1.1-0.1-1.7-0.2-2-0.4s-0.4-0.7-0.4-1.5
			c0-0.8,0.2-1.3,0.5-1.6s1.1-0.4,2.1-0.4c1,0,1.7,0.1,2,0.4s0.5,0.7,0.5,1.4V5.2z"/>
		<path class="st4" d="M49.1,3.3v6.7h-1.3V3.3H49.1z"/>
		<path class="st4" d="M53,4.4v5.5h-1.3V4.4h-1.9V3.3H55v1.1H53z"/>
		<path class="st4" d="M56.7,4.3V6h3.1V7h-3.1v1.9h3.3v1.1h-4.6V3.3H60v1.1H56.7z"/>
		<path class="st4" d="M62.1,8.7v1.2c0,0.8-0.3,1.2-1,1.2c0,0-0.1,0-0.2,0v-0.5c0.4,0,0.5-0.1,0.5-0.4l0-0.1H61V8.7H62.1z"/>
		<path class="st4" d="M69.8,8.6h-2.9l-0.4,1.3h-1.3l2.2-6.7h1.9l2.3,6.7h-1.3L69.8,8.6z M69.5,7.7l-1.2-3.5l-1.1,3.5H69.5z"/>
		<path class="st4" d="M77,5.2h-1.2c0-0.1,0-0.1,0-0.1c0-0.4-0.1-0.6-0.2-0.7s-0.5-0.1-1-0.1c-0.6,0-1,0.1-1.2,0.2
			c-0.2,0.1-0.3,0.3-0.3,0.7c0,0.4,0.1,0.7,0.2,0.8C73.5,5.9,74,6,74.8,6c1,0.1,1.6,0.2,1.9,0.4c0.3,0.2,0.4,0.7,0.4,1.4
			c0,0.9-0.2,1.5-0.5,1.7S75.6,10,74.4,10c-1,0-1.7-0.1-2.1-0.4c-0.3-0.3-0.5-0.8-0.5-1.5l0-0.2h1.2l0,0.1c0,0.5,0.1,0.8,0.2,0.9
			C73.5,8.9,73.9,9,74.6,9c0.6,0,0.9-0.1,1.1-0.2S76,8.4,76,7.9c0-0.3-0.1-0.5-0.2-0.6c-0.1-0.1-0.4-0.2-0.8-0.2l-0.7,0
			c-1.1-0.1-1.7-0.2-2-0.4s-0.4-0.7-0.4-1.5c0-0.8,0.2-1.3,0.5-1.6c0.4-0.3,1.1-0.4,2.1-0.4c1,0,1.7,0.1,2,0.4
			C76.9,3.8,77,4.3,77,4.9V5.2z"/>
		<path class="st4" d="M83,5.2h-1.2c0-0.1,0-0.1,0-0.1c0-0.4-0.1-0.6-0.2-0.7s-0.5-0.1-1-0.1c-0.6,0-1,0.1-1.2,0.2
			c-0.2,0.1-0.3,0.3-0.3,0.7c0,0.4,0.1,0.7,0.2,0.8C79.5,5.9,80,6,80.8,6c1,0.1,1.6,0.2,1.9,0.4c0.3,0.2,0.4,0.7,0.4,1.4
			c0,0.9-0.2,1.5-0.5,1.7S81.6,10,80.4,10c-1,0-1.7-0.1-2.1-0.4c-0.3-0.3-0.5-0.8-0.5-1.5l0-0.2H79l0,0.1c0,0.5,0.1,0.8,0.2,0.9
			C79.5,8.9,79.9,9,80.6,9c0.6,0,0.9-0.1,1.1-0.2s0.2-0.4,0.2-0.8c0-0.3-0.1-0.5-0.2-0.6c-0.1-0.1-0.4-0.2-0.8-0.2l-0.7,0
			c-1.1-0.1-1.7-0.2-2-0.4s-0.4-0.7-0.4-1.5c0-0.8,0.2-1.3,0.5-1.6c0.4-0.3,1.1-0.4,2.1-0.4c1,0,1.7,0.1,2,0.4
			C82.9,3.8,83,4.3,83,4.9V5.2z"/>
		<path class="st4" d="M85.2,4.3V6h3.1V7h-3.1v1.9h3.3v1.1h-4.6V3.3h4.6v1.1H85.2z"/>
		<path class="st4" d="M92.1,4.4v5.5h-1.3V4.4h-1.9V3.3h5.2v1.1H92.1z"/>
		<path class="st4" d="M99.7,5.2h-1.2c0-0.1,0-0.1,0-0.1c0-0.4-0.1-0.6-0.2-0.7s-0.5-0.1-1-0.1c-0.6,0-1,0.1-1.2,0.2
			c-0.2,0.1-0.3,0.3-0.3,0.7c0,0.4,0.1,0.7,0.2,0.8C96.2,5.9,96.7,6,97.5,6c1,0.1,1.6,0.2,1.9,0.4c0.3,0.2,0.4,0.7,0.4,1.4
			c0,0.9-0.2,1.5-0.5,1.7S98.3,10,97.1,10c-1,0-1.7-0.1-2.1-0.4c-0.3-0.3-0.5-0.8-0.5-1.5l0-0.2h1.2l0,0.1c0,0.5,0.1,0.8,0.2,0.9
			C96.1,8.9,96.6,9,97.3,9c0.6,0,0.9-0.1,1.1-0.2s0.2-0.4,0.2-0.8c0-0.3-0.1-0.5-0.2-0.6c-0.1-0.1-0.4-0.2-0.8-0.2l-0.7,0
			c-1.1-0.1-1.7-0.2-2-0.4s-0.4-0.7-0.4-1.5c0-0.8,0.2-1.3,0.5-1.6c0.4-0.3,1.1-0.4,2.1-0.4c1,0,1.7,0.1,2,0.4
			c0.3,0.2,0.5,0.7,0.5,1.4V5.2z"/>
		<path class="st4" d="M101.8,8.7v1.2c0,0.8-0.3,1.2-1,1.2c0,0-0.1,0-0.2,0v-0.5c0.4,0,0.5-0.1,0.5-0.4l0-0.1h-0.4V8.7H101.8z"/>
		<path class="st4" d="M34,13.3v6.7h-1.3v-3.6c0-0.3,0-0.6,0-1l0-0.5l0-0.5h0l-0.2,0.5l-0.1,0.5c-0.1,0.4-0.2,0.7-0.3,0.9l-1.5,3.8
			h-1.2l-1.5-3.7c-0.1-0.2-0.2-0.5-0.3-0.9l-0.2-0.5l-0.2-0.5h0l0,0.5l0,0.5c0,0.4,0,0.7,0,1v3.6h-1.3v-6.7h2.1l1.2,3.1
			c0.1,0.2,0.2,0.5,0.3,0.9l0.1,0.5l0.2,0.5h0l0.1-0.5l0.1-0.5c0.1-0.4,0.2-0.7,0.3-0.9l1.2-3.1H34z"/>
		<path class="st4" d="M36.3,14.3V16h3.1V17h-3.1v1.9h3.3v1.1h-4.6v-6.7h4.6v1.1H36.3z"/>
		<path class="st4" d="M40.6,19.9v-6.7h3.3c0.8,0,1.4,0.1,1.7,0.4s0.5,0.8,0.5,1.5c0,0.7-0.1,1.1-0.2,1.4c-0.2,0.2-0.5,0.4-0.9,0.5
			v0c0.7,0,1.1,0.5,1.1,1.3v1.5h-1.3v-1.2c0-0.7-0.3-1-1-1h-1.8v2.2H40.6z M41.9,16.6h1.8c0.4,0,0.7-0.1,0.9-0.2
			c0.1-0.2,0.2-0.5,0.2-0.9c0-0.5-0.1-0.8-0.2-0.9c-0.1-0.1-0.4-0.2-0.8-0.2h-1.9V16.6z"/>
		<path class="st4" d="M51.2,17.5h1.3v0.2c0,0.9-0.2,1.5-0.5,1.8c-0.3,0.3-1.1,0.4-2.2,0.4c-1.3,0-2.1-0.2-2.4-0.6s-0.5-1.6-0.5-3.4
			c0-1.1,0.2-1.8,0.6-2.2s1.3-0.5,2.6-0.5c1,0,1.6,0.1,1.9,0.4c0.3,0.3,0.5,0.9,0.5,1.7l0,0.2h-1.3v-0.2c0-0.4-0.1-0.7-0.2-0.8
			s-0.5-0.2-1.1-0.2c-0.8,0-1.3,0.1-1.4,0.3c-0.2,0.2-0.2,0.8-0.2,1.7c0,1.3,0.1,2,0.2,2.3s0.6,0.4,1.4,0.4c0.6,0,1-0.1,1.2-0.2
			c0.2-0.1,0.3-0.4,0.3-0.9L51.2,17.5z"/>
		<path class="st4" d="M58.9,13.3v6.7h-1.3V17h-3.1v2.9h-1.3v-6.7h1.3V16h3.1v-2.7H58.9z"/>
		<path class="st4" d="M61.1,18.7v1.2c0,0.8-0.3,1.2-1,1.2c0,0-0.1,0-0.2,0v-0.5c0.4,0,0.5-0.2,0.5-0.4l0-0.1H60v-1.2H61.1z"/>
		<path class="st4" d="M64.8,19.9v-6.7h2.7h0.3c0.9,0,1.5,0.2,1.8,0.5c0.3,0.3,0.5,0.9,0.5,1.8c0,0.9-0.1,1.5-0.4,1.8
			c-0.3,0.3-0.9,0.4-1.8,0.4l-0.3,0H66v2.2H64.8z M66,16.7h1.4c0.6,0,0.9-0.1,1.1-0.2c0.2-0.1,0.2-0.4,0.2-0.9c0-0.6-0.1-0.9-0.2-1
			c-0.1-0.1-0.5-0.2-1-0.2H66V16.7z"/>
		<path class="st4" d="M70.9,19.9v-6.7h3.3c0.8,0,1.4,0.1,1.7,0.4c0.3,0.3,0.5,0.8,0.5,1.5c0,0.7-0.1,1.1-0.2,1.4
			c-0.2,0.2-0.5,0.4-1,0.5v0c0.7,0,1.1,0.5,1.1,1.3v1.5H75v-1.2c0-0.7-0.3-1-1-1h-1.8v2.2H70.9z M72.2,16.6H74
			c0.4,0,0.7-0.1,0.9-0.2c0.1-0.2,0.2-0.5,0.2-0.9c0-0.5-0.1-0.8-0.2-0.9c-0.1-0.1-0.4-0.2-0.8-0.2h-1.9V16.6z"/>
		<path class="st4" d="M78.6,13.3v6.7h-1.3v-6.7H78.6z"/>
		<path class="st4" d="M84.7,13.3v1.1L81,18.8v0h3.7v1.1h-5.3v-1.1l3.7-4.5v0h-3.5v-1.1H84.7z"/>
		<path class="st4" d="M86.7,14.3V16h3.1V17h-3.1v1.9H90v1.1h-4.6v-6.7H90v1.1H86.7z"/>
		<path class="st4" d="M95.9,15.2h-1.2c0-0.1,0-0.1,0-0.1c0-0.4-0.1-0.6-0.2-0.7c-0.1-0.1-0.5-0.1-1-0.1c-0.6,0-1,0.1-1.2,0.2
			c-0.2,0.1-0.3,0.3-0.3,0.7c0,0.4,0.1,0.7,0.2,0.8c0.2,0.1,0.6,0.1,1.5,0.2c1,0.1,1.6,0.2,1.9,0.4c0.3,0.2,0.4,0.7,0.4,1.4
			c0,0.9-0.2,1.5-0.5,1.7S94.5,20,93.3,20c-1,0-1.7-0.1-2.1-0.4c-0.3-0.3-0.5-0.8-0.5-1.5l0-0.2h1.2l0,0.1c0,0.5,0.1,0.8,0.2,0.9
			c0.2,0.1,0.6,0.2,1.3,0.2c0.6,0,0.9-0.1,1.1-0.2c0.2-0.1,0.2-0.4,0.2-0.8c0-0.3-0.1-0.5-0.2-0.6c-0.1-0.1-0.4-0.2-0.8-0.2l-0.7,0
			c-1.1-0.1-1.7-0.2-2-0.4c-0.3-0.2-0.4-0.7-0.4-1.5c0-0.8,0.2-1.3,0.5-1.6c0.4-0.3,1.1-0.4,2.1-0.4c1,0,1.7,0.1,2,0.4
			c0.3,0.2,0.5,0.7,0.5,1.4V15.2z"/>
	</g>
	<g>
		<path class="st4" d="M13.4,10.2h-1.2c0-0.1,0-0.1,0-0.1c0-0.4-0.1-0.6-0.2-0.7c-0.1-0.1-0.5-0.1-1-0.1c-0.6,0-1,0.1-1.2,0.2
			c-0.2,0.1-0.3,0.3-0.3,0.7c0,0.4,0.1,0.7,0.2,0.8c0.1,0.1,0.6,0.2,1.5,0.2c1,0.1,1.6,0.2,1.9,0.4c0.3,0.2,0.4,0.7,0.4,1.4
			c0,0.9-0.2,1.5-0.5,1.7S12,15,10.8,15c-1,0-1.7-0.1-2.1-0.4s-0.5-0.8-0.5-1.5l0-0.2h1.2l0,0.1c0,0.5,0.1,0.8,0.2,0.9
			C9.9,13.9,10.3,14,11,14c0.6,0,0.9-0.1,1.1-0.2c0.2-0.1,0.2-0.4,0.2-0.8c0-0.3-0.1-0.5-0.2-0.6c-0.1-0.1-0.4-0.2-0.8-0.2l-0.7,0
			c-1.1-0.1-1.7-0.2-2-0.4c-0.3-0.2-0.4-0.7-0.4-1.5c0-0.8,0.2-1.3,0.5-1.6s1.1-0.4,2.1-0.4c1,0,1.7,0.1,2,0.4
			c0.3,0.2,0.5,0.7,0.5,1.4V10.2z"/>
		<path class="st4" d="M15.6,9.3V11h3.1V12h-3.1v1.9h3.3v1.1h-4.6V8.3h4.6v1.1H15.6z"/>
		<path class="st4" d="M24,12.5h1.3v0.2c0,0.9-0.2,1.5-0.5,1.8c-0.3,0.3-1.1,0.4-2.2,0.4c-1.3,0-2.1-0.2-2.4-0.6s-0.5-1.6-0.5-3.4
			c0-1.1,0.2-1.8,0.6-2.2s1.3-0.5,2.6-0.5c1,0,1.6,0.1,1.9,0.4c0.3,0.3,0.5,0.9,0.5,1.7l0,0.2h-1.3v-0.2c0-0.4-0.1-0.7-0.2-0.8
			s-0.5-0.2-1.1-0.2c-0.8,0-1.3,0.1-1.4,0.3c-0.2,0.2-0.2,0.8-0.2,1.7c0,1.3,0.1,2,0.2,2.3s0.6,0.4,1.4,0.4c0.6,0,1-0.1,1.2-0.2
			c0.2-0.1,0.3-0.4,0.3-0.9L24,12.5z"/>
		<path class="st4" d="M30.3,8.3h1.3v4.4c0,0.9-0.2,1.5-0.5,1.8C30.7,14.8,30,15,28.9,15c-1.2,0-1.9-0.1-2.3-0.4s-0.5-0.9-0.5-1.8
			V8.3h1.3v4.5c0,0.5,0.1,0.8,0.3,0.9s0.6,0.2,1.2,0.2c0.7,0,1.1-0.1,1.3-0.2c0.2-0.1,0.3-0.5,0.3-1V8.3z"/>
		<path class="st4" d="M32.8,14.9V8.3h3.3c0.8,0,1.4,0.1,1.7,0.4s0.5,0.8,0.5,1.5c0,0.7-0.1,1.1-0.2,1.4c-0.2,0.2-0.5,0.4-0.9,0.5v0
			c0.7,0,1.1,0.5,1.1,1.3v1.5h-1.3v-1.2c0-0.7-0.3-1-1-1H34v2.2H32.8z M34,11.6h1.8c0.4,0,0.7-0.1,0.9-0.2c0.1-0.2,0.2-0.5,0.2-0.9
			c0-0.5-0.1-0.8-0.2-0.9c-0.1-0.1-0.4-0.2-0.8-0.2H34V11.6z"/>
		<path class="st4" d="M40.5,8.3v6.7h-1.3V8.3H40.5z"/>
		<path class="st4" d="M44.3,9.4v5.5h-1.3V9.4h-1.9V8.3h5.2v1.1H44.3z"/>
		<path class="st4" d="M52.5,8.3L50,12.4v2.5h-1.3v-2.5l-2.4-4.1h1.5l1,1.8c0.1,0.1,0.1,0.3,0.3,0.5l0.1,0.3l0.1,0.3h0l0.1-0.3
			l0.1-0.3c0.1-0.2,0.2-0.4,0.3-0.5l1-1.8H52.5z"/>
		<path class="st4" d="M54.1,13.7v1.2c0,0.8-0.3,1.2-1,1.2c0,0-0.1,0-0.2,0v-0.5c0.4,0,0.5-0.1,0.5-0.4l0-0.1H53v-1.2H54.1z"/>
		<path class="st4" d="M59,9.3v1.8h3v1.1h-3v2.7h-1.3V8.3h4.4v1.1H59z"/>
		<path class="st4" d="M64.2,8.3v5.5h3.1v1.1H63V8.3H64.2z"/>
		<path class="st4" d="M69.1,9.3V11h3.1V12h-3.1v1.9h3.3v1.1h-4.6V8.3h4.6v1.1H69.1z"/>
		<path class="st4" d="M74.5,9.3V11h3.1V12h-3.1v1.9h3.3v1.1h-4.6V8.3h4.6v1.1H74.5z"/>
		<path class="st4" d="M81.4,9.4v5.5h-1.3V9.4h-1.9V8.3h5.2v1.1H81.4z"/>
		<path class="st4" d="M88.2,12.5h1.3v0.2c0,0.9-0.2,1.5-0.5,1.8c-0.3,0.3-1.1,0.4-2.2,0.4c-1.3,0-2.1-0.2-2.4-0.6s-0.5-1.6-0.5-3.4
			c0-1.1,0.2-1.8,0.6-2.2s1.3-0.5,2.6-0.5c1,0,1.6,0.1,1.9,0.4c0.3,0.3,0.5,0.9,0.5,1.7l0,0.2h-1.3v-0.2c0-0.4-0.1-0.7-0.2-0.8
			c-0.2-0.1-0.5-0.2-1.1-0.2c-0.8,0-1.3,0.1-1.4,0.3c-0.2,0.2-0.2,0.8-0.2,1.7c0,1.3,0.1,2,0.2,2.3s0.6,0.4,1.4,0.4
			c0.6,0,1-0.1,1.2-0.2c0.2-0.1,0.3-0.4,0.3-0.9L88.2,12.5z"/>
		<path class="st4" d="M93,8.2c1.2,0,2,0.2,2.3,0.6c0.3,0.4,0.5,1.3,0.5,2.7c0,1.5-0.2,2.5-0.5,2.9C95,14.8,94.2,15,92.8,15
			c-1.2,0-2-0.2-2.3-0.6c-0.4-0.4-0.5-1.3-0.5-2.6c0-1.6,0.2-2.6,0.5-3C90.8,8.4,91.7,8.2,93,8.2z M92.9,9.3c-0.8,0-1.3,0.1-1.5,0.3
			c-0.1,0.2-0.2,1-0.2,2.3c0,1,0.1,1.5,0.3,1.7c0.2,0.2,0.7,0.3,1.5,0.3c0.8,0,1.3-0.1,1.4-0.3s0.2-0.9,0.2-2c0-1.1-0.1-1.8-0.2-2
			C94.2,9.4,93.7,9.3,92.9,9.3z"/>
		<path class="st4" d="M104.5,8.3v6.7h-1.3v-3.6c0-0.3,0-0.6,0-1l0-0.5l0-0.5h0l-0.2,0.5l-0.1,0.5c-0.1,0.4-0.2,0.7-0.3,0.9
			l-1.5,3.8h-1.2l-1.5-3.7c-0.1-0.2-0.2-0.5-0.3-0.9l-0.2-0.5L98,9.3h0l0,0.5l0,0.5c0,0.4,0,0.7,0,1v3.6h-1.3V8.3h2.1l1.2,3.1
			c0.1,0.2,0.2,0.5,0.3,0.9l0.1,0.5l0.2,0.5h0l0.1-0.5l0.1-0.5c0.1-0.4,0.2-0.7,0.3-0.9l1.2-3.1H104.5z"/>
		<path class="st4" d="M113.5,8.3v6.7h-1.3v-3.6c0-0.3,0-0.6,0-1l0-0.5l0-0.5h0l-0.2,0.5l-0.1,0.5c-0.1,0.4-0.2,0.7-0.3,0.9
			l-1.5,3.8H109l-1.5-3.7c-0.1-0.2-0.2-0.5-0.3-0.9l-0.2-0.5l-0.2-0.5h0l0,0.5l0,0.5c0,0.4,0,0.7,0,1v3.6h-1.3V8.3h2.1l1.2,3.1
			c0.1,0.2,0.2,0.5,0.3,0.9l0.1,0.5l0.2,0.5h0l0.1-0.5l0.1-0.5c0.1-0.4,0.2-0.7,0.3-0.9l1.2-3.1H113.5z"/>
	</g>
	<g>
		<path class="st4" d="M42.9,8.3l-1.8,6.7h-1.9l-0.9-3.4c-0.1-0.3-0.2-0.7-0.3-1.2L38,9.8h0l-0.1,0.4l-0.1,0.4
			c-0.1,0.3-0.1,0.6-0.2,0.8l-1,3.4h-1.9L33,8.3h1.3l1,3.7c0.1,0.2,0.1,0.6,0.2,1l0.1,0.5l0.1,0.5h0c0.1-0.2,0.1-0.4,0.1-0.5
			l0.1-0.5c0.1-0.3,0.1-0.6,0.3-1l1-3.7h1.5l1,3.7c0.1,0.3,0.2,0.6,0.2,1l0.1,0.5l0.1,0.5h0l0.1-0.5l0.1-0.5c0.1-0.4,0.2-0.7,0.2-1
			l1-3.7H42.9z"/>
		<path class="st4" d="M47.5,13.6h-2.9l-0.4,1.3h-1.3l2.2-6.7H47l2.3,6.7H48L47.5,13.6z M47.3,12.7l-1.2-3.5L45,12.7H47.3z"/>
		<path class="st4" d="M55.4,8.3l-2.5,4.1v2.5h-1.3v-2.5l-2.4-4.1h1.5l1,1.8c0.1,0.1,0.1,0.3,0.3,0.5l0.1,0.3l0.1,0.3h0l0.1-0.3
			l0.1-0.3c0.1-0.2,0.2-0.4,0.3-0.5l1-1.8H55.4z"/>
		<path class="st4" d="M55.9,14.9V8.3h2.7H59c0.9,0,1.5,0.2,1.8,0.5c0.3,0.3,0.5,0.9,0.5,1.8c0,0.9-0.1,1.5-0.4,1.8
			s-0.9,0.4-1.8,0.4l-0.3,0h-1.5v2.2H55.9z M57.2,11.7h1.4c0.6,0,0.9-0.1,1.1-0.2s0.2-0.4,0.2-0.9c0-0.6-0.1-0.9-0.2-1
			c-0.1-0.1-0.5-0.2-1-0.2h-1.6V11.7z"/>
		<path class="st4" d="M64.8,8.2c1.2,0,2,0.2,2.3,0.6c0.3,0.4,0.5,1.3,0.5,2.7c0,1.5-0.2,2.5-0.5,2.9C66.8,14.8,66,15,64.6,15
			c-1.2,0-2-0.2-2.3-0.6c-0.4-0.4-0.5-1.3-0.5-2.6c0-1.6,0.2-2.6,0.5-3C62.6,8.4,63.5,8.2,64.8,8.2z M64.7,9.3
			c-0.8,0-1.3,0.1-1.5,0.3c-0.1,0.2-0.2,1-0.2,2.3c0,1,0.1,1.5,0.3,1.7c0.2,0.2,0.7,0.3,1.5,0.3c0.8,0,1.3-0.1,1.4-0.3
			s0.2-0.9,0.2-2c0-1.1-0.1-1.8-0.2-2C66,9.4,65.5,9.3,64.7,9.3z"/>
		<path class="st4" d="M69.8,8.3v6.7h-1.3V8.3H69.8z"/>
		<path class="st4" d="M77.2,8.3v6.7H75l-1.9-3.7c-0.1-0.2-0.2-0.5-0.4-1l-0.2-0.5l-0.2-0.5h0l0,0.4l0,0.4l0,0.9v3.8H71V8.3h2.1
			l1.7,3.4c0.2,0.3,0.3,0.7,0.5,1.1l0.3,0.5l0.3,0.5h0l0-0.4l0-0.4l0-0.9V8.3H77.2z"/>
		<path class="st4" d="M81,9.4v5.5h-1.3V9.4h-1.9V8.3H83v1.1H81z"/>
		<path class="st4" d="M88.6,10.2h-1.2c0-0.1,0-0.1,0-0.1c0-0.4-0.1-0.6-0.2-0.7c-0.1-0.1-0.5-0.1-1-0.1c-0.6,0-1,0.1-1.2,0.2
			c-0.2,0.1-0.3,0.3-0.3,0.7c0,0.4,0.1,0.7,0.2,0.8c0.2,0.1,0.6,0.2,1.5,0.2c1,0.1,1.6,0.2,1.9,0.4c0.3,0.2,0.4,0.7,0.4,1.4
			c0,0.9-0.2,1.5-0.5,1.7S87.1,15,86,15c-1,0-1.7-0.1-2.1-0.4c-0.3-0.3-0.5-0.8-0.5-1.5l0-0.2h1.2l0,0.1c0,0.5,0.1,0.8,0.2,0.9
			c0.2,0.1,0.6,0.2,1.3,0.2c0.6,0,0.9-0.1,1.1-0.2c0.2-0.1,0.2-0.4,0.2-0.8c0-0.3-0.1-0.5-0.2-0.6c-0.1-0.1-0.4-0.2-0.8-0.2l-0.7,0
			c-1.1-0.1-1.7-0.2-2-0.4c-0.3-0.2-0.4-0.7-0.4-1.5c0-0.8,0.2-1.3,0.5-1.6C84.3,8.3,85,8.2,86,8.2c1,0,1.7,0.1,2,0.4
			c0.3,0.2,0.5,0.7,0.5,1.4V10.2z"/>
	</g>
	<g>
		<path class="st4" d="M33,5.2h-1.2c0-0.1,0-0.1,0-0.1c0-0.4-0.1-0.6-0.2-0.7c-0.1-0.1-0.5-0.1-1-0.1c-0.6,0-1,0.1-1.2,0.2
			c-0.2,0.1-0.3,0.3-0.3,0.7c0,0.4,0.1,0.7,0.2,0.8C29.5,5.9,29.9,6,30.8,6c1,0.1,1.6,0.2,1.9,0.4c0.3,0.2,0.4,0.7,0.4,1.4
			c0,0.9-0.2,1.5-0.5,1.7S31.5,10,30.4,10c-1,0-1.7-0.1-2.1-0.4s-0.5-0.8-0.5-1.5l0-0.2H29l0,0.1c0,0.5,0.1,0.8,0.2,0.9
			C29.4,8.9,29.9,9,30.6,9c0.6,0,0.9-0.1,1.1-0.2c0.2-0.1,0.2-0.4,0.2-0.8c0-0.3-0.1-0.5-0.2-0.6c-0.1-0.1-0.4-0.2-0.8-0.2l-0.7,0
			c-1.1-0.1-1.7-0.2-2-0.4c-0.3-0.2-0.4-0.7-0.4-1.5c0-0.8,0.2-1.3,0.5-1.6s1.1-0.4,2.1-0.4c1,0,1.7,0.1,2,0.4
			C32.8,3.8,33,4.3,33,4.9V5.2z"/>
		<path class="st4" d="M36.8,3.2c1.2,0,2,0.2,2.3,0.6c0.3,0.4,0.5,1.3,0.5,2.7c0,1.5-0.2,2.5-0.5,2.9c-0.4,0.4-1.2,0.6-2.5,0.6
			c-1.2,0-2-0.2-2.3-0.6c-0.4-0.4-0.5-1.3-0.5-2.6c0-1.6,0.2-2.6,0.5-3C34.6,3.4,35.4,3.2,36.8,3.2z M36.7,4.3
			c-0.8,0-1.3,0.1-1.5,0.3c-0.1,0.2-0.2,1-0.2,2.3c0,1,0.1,1.5,0.3,1.7s0.7,0.3,1.5,0.3c0.8,0,1.3-0.1,1.4-0.3s0.2-0.9,0.2-2
			c0-1.1-0.1-1.8-0.2-2C38,4.4,37.5,4.3,36.7,4.3z"/>
		<path class="st4" d="M44.6,7.5h1.3v0.2c0,0.9-0.2,1.5-0.5,1.8c-0.3,0.3-1.1,0.4-2.2,0.4c-1.3,0-2.1-0.2-2.4-0.6s-0.5-1.6-0.5-3.4
			c0-1.1,0.2-1.8,0.6-2.2s1.3-0.5,2.6-0.5c1,0,1.6,0.1,1.9,0.4c0.3,0.3,0.5,0.9,0.5,1.7l0,0.2h-1.3V5.3c0-0.4-0.1-0.7-0.2-0.8
			s-0.5-0.2-1.1-0.2c-0.8,0-1.3,0.1-1.4,0.3c-0.2,0.2-0.2,0.8-0.2,1.7c0,1.3,0.1,2,0.2,2.3s0.6,0.4,1.4,0.4c0.6,0,1-0.1,1.2-0.2
			c0.2-0.1,0.3-0.4,0.3-0.9L44.6,7.5z"/>
		<path class="st4" d="M48,3.3v6.7h-1.3V3.3H48z"/>
		<path class="st4" d="M53.2,8.6h-2.9l-0.4,1.3h-1.3l2.2-6.7h1.9l2.3,6.7h-1.3L53.2,8.6z M52.9,7.7l-1.2-3.5l-1.1,3.5H52.9z"/>
		<path class="st4" d="M56.8,3.3v5.5h3.1v1.1h-4.4V3.3H56.8z"/>
		<path class="st4" d="M70.8,3.3v6.7h-1.3V6.3c0-0.3,0-0.6,0-1l0-0.5l0-0.5h0l-0.2,0.5l-0.1,0.5C69.1,5.7,69,6,69,6.2l-1.5,3.8h-1.2
			l-1.5-3.7c-0.1-0.2-0.2-0.5-0.3-0.9l-0.2-0.5l-0.2-0.5h0l0,0.5l0,0.5c0,0.4,0,0.7,0,1v3.6H63V3.3h2.1l1.2,3.1
			c0.1,0.2,0.2,0.5,0.3,0.9l0.1,0.5l0.2,0.5h0l0.1-0.5l0.1-0.5c0.1-0.4,0.2-0.7,0.3-0.9l1.2-3.1H70.8z"/>
		<path class="st4" d="M73.1,4.3V6h3.1V7h-3.1v1.9h3.3v1.1h-4.6V3.3h4.6v1.1H73.1z"/>
		<path class="st4" d="M77.4,9.9V3.3h3.3c0.9,0,1.6,0.2,2,0.6C83,4.3,83.2,5,83.2,6c0,1.7-0.2,2.7-0.4,3.2c-0.3,0.5-1,0.7-2,0.7
			H77.4z M78.6,8.9h1.8c0.6,0,1-0.1,1.2-0.4c0.2-0.3,0.3-0.9,0.3-1.8c0-1-0.1-1.6-0.2-1.9c-0.2-0.3-0.5-0.4-1.1-0.4h-1.9V8.9z"/>
		<path class="st4" d="M85.4,3.3v6.7h-1.3V3.3H85.4z"/>
		<path class="st4" d="M90.6,8.6h-2.9l-0.4,1.3h-1.3l2.2-6.7h1.9l2.3,6.7H91L90.6,8.6z M90.3,7.7l-1.2-3.5L88,7.7H90.3z"/>
		<path class="st4" d="M94,8.7v1.2c0,0.8-0.3,1.2-1,1.2c0,0-0.1,0-0.2,0v-0.5c0.4,0,0.5-0.1,0.5-0.4l0-0.1h-0.4V8.7H94z"/>
		<path class="st4" d="M18.5,19.9v-6.7h2.7h0.3c0.9,0,1.5,0.2,1.8,0.5c0.3,0.3,0.5,0.9,0.5,1.8c0,0.9-0.1,1.5-0.4,1.8
			s-0.9,0.4-1.8,0.4l-0.3,0h-1.5v2.2H18.5z M19.8,16.7h1.4c0.6,0,0.9-0.1,1.1-0.2s0.2-0.4,0.2-0.9c0-0.6-0.1-0.9-0.2-1
			c-0.1-0.1-0.5-0.2-1-0.2h-1.6V16.7z"/>
		<path class="st4" d="M28.9,13.3h1.3v4.4c0,0.9-0.2,1.5-0.5,1.8c-0.4,0.3-1.1,0.4-2.2,0.4c-1.2,0-1.9-0.1-2.3-0.4s-0.5-0.9-0.5-1.8
			v-4.5h1.3v4.5c0,0.5,0.1,0.8,0.3,0.9s0.6,0.2,1.2,0.2c0.7,0,1.1-0.1,1.3-0.2c0.2-0.1,0.3-0.5,0.3-1V13.3z"/>
		<path class="st4" d="M31.4,19.9v-6.7h3.3c0.8,0,1.3,0.1,1.6,0.4c0.3,0.2,0.4,0.7,0.4,1.4c0,0.8-0.3,1.3-1,1.5v0
			c0.8,0.1,1.1,0.6,1.1,1.6c0,0.7-0.1,1.2-0.4,1.4s-0.8,0.4-1.5,0.4H31.4z M32.6,16h1.5c0.5,0,0.8-0.1,1-0.2
			c0.1-0.1,0.2-0.4,0.2-0.8c0-0.5-0.3-0.8-0.9-0.8h-1.8V16z M32.6,18.9H34l0.4,0c0.4,0,0.7-0.1,0.8-0.2c0.1-0.1,0.2-0.4,0.2-0.8
			c0-0.4-0.1-0.7-0.2-0.8c-0.1-0.1-0.5-0.2-1-0.2h-1.6V18.9z"/>
		<path class="st4" d="M39,13.3v5.5h3.1v1.1h-4.4v-6.7H39z"/>
		<path class="st4" d="M44,13.3v6.7h-1.3v-6.7H44z"/>
		<path class="st4" d="M49.3,17.5h1.3v0.2c0,0.9-0.2,1.5-0.5,1.8C49.7,19.8,49,20,47.8,20c-1.3,0-2.1-0.2-2.4-0.6s-0.5-1.6-0.5-3.4
			c0-1.1,0.2-1.8,0.6-2.2s1.3-0.5,2.6-0.5c1,0,1.6,0.1,1.9,0.4c0.3,0.3,0.5,0.9,0.5,1.7l0,0.2h-1.3v-0.2c0-0.4-0.1-0.7-0.2-0.8
			s-0.5-0.2-1.1-0.2c-0.8,0-1.3,0.1-1.4,0.3c-0.2,0.2-0.2,0.8-0.2,1.7c0,1.3,0.1,2,0.2,2.3s0.6,0.4,1.4,0.4c0.6,0,1-0.1,1.2-0.2
			c0.2-0.1,0.3-0.4,0.3-0.9L49.3,17.5z"/>
		<path class="st4" d="M53.9,19.9v-6.7h3.3c0.8,0,1.4,0.1,1.7,0.4s0.5,0.8,0.5,1.5c0,0.7-0.1,1.1-0.2,1.4c-0.2,0.2-0.5,0.4-0.9,0.5
			v0c0.7,0,1.1,0.5,1.1,1.3v1.5H58v-1.2c0-0.7-0.3-1-1-1h-1.8v2.2H53.9z M55.1,16.6h1.8c0.4,0,0.7-0.1,0.9-0.2
			c0.1-0.2,0.2-0.5,0.2-0.9c0-0.5-0.1-0.8-0.2-0.9c-0.1-0.1-0.4-0.2-0.8-0.2h-1.9V16.6z"/>
		<path class="st4" d="M61.4,14.3V16h3.1V17h-3.1v1.9h3.3v1.1h-4.6v-6.7h4.6v1.1H61.4z"/>
		<path class="st4" d="M67,13.3v5.5h3.1v1.1h-4.4v-6.7H67z"/>
		<path class="st4" d="M74.8,18.6h-2.9l-0.4,1.3h-1.3l2.2-6.7h1.9l2.3,6.7h-1.3L74.8,18.6z M74.5,17.7l-1.2-3.5l-1.1,3.5H74.5z"/>
		<path class="st4" d="M79.7,14.4v5.5h-1.3v-5.5h-1.9v-1.1h5.2v1.1H79.7z"/>
		<path class="st4" d="M83.6,13.3v6.7h-1.3v-6.7H83.6z"/>
		<path class="st4" d="M87.6,13.2c1.2,0,2,0.2,2.3,0.6c0.3,0.4,0.5,1.3,0.5,2.7c0,1.5-0.2,2.5-0.5,2.9c-0.3,0.4-1.2,0.6-2.5,0.6
			c-1.2,0-2-0.2-2.3-0.6c-0.4-0.4-0.5-1.3-0.5-2.6c0-1.6,0.2-2.6,0.5-3C85.4,13.4,86.2,13.2,87.6,13.2z M87.5,14.3
			c-0.8,0-1.3,0.1-1.5,0.3c-0.1,0.2-0.2,1-0.2,2.3c0,1,0.1,1.5,0.3,1.7c0.2,0.2,0.7,0.3,1.5,0.3c0.8,0,1.3-0.1,1.4-0.3
			s0.2-0.9,0.2-2c0-1.1-0.1-1.8-0.2-2C88.8,14.4,88.3,14.3,87.5,14.3z"/>
		<path class="st4" d="M97.5,13.3v6.7h-2.1l-1.9-3.7c-0.1-0.2-0.2-0.5-0.4-1l-0.2-0.5l-0.2-0.5h0l0,0.4l0,0.4l0,0.9v3.8h-1.3v-6.7
			h2.1l1.7,3.4c0.2,0.3,0.3,0.7,0.5,1.1l0.3,0.5l0.3,0.5h0l0-0.4l0-0.4l0-0.9v-3.8H97.5z"/>
		<path class="st4" d="M103.6,15.2h-1.2c0-0.1,0-0.1,0-0.1c0-0.4-0.1-0.6-0.2-0.7c-0.1-0.1-0.5-0.1-1-0.1c-0.6,0-1,0.1-1.2,0.2
			c-0.2,0.1-0.3,0.3-0.3,0.7c0,0.4,0.1,0.7,0.2,0.8c0.1,0.1,0.6,0.2,1.5,0.2c1,0.1,1.6,0.2,1.9,0.4c0.3,0.2,0.4,0.7,0.4,1.4
			c0,0.9-0.2,1.5-0.5,1.7S102.2,20,101,20c-1,0-1.7-0.1-2.1-0.4c-0.3-0.3-0.5-0.8-0.5-1.5l0-0.2h1.2l0,0.1c0,0.5,0.1,0.8,0.2,0.9
			c0.2,0.1,0.6,0.2,1.3,0.2c0.6,0,0.9-0.1,1.1-0.2c0.2-0.1,0.2-0.4,0.2-0.8c0-0.3-0.1-0.5-0.2-0.6c-0.1-0.1-0.4-0.2-0.8-0.2l-0.7,0
			c-1.1-0.1-1.7-0.2-2-0.4c-0.3-0.2-0.4-0.7-0.4-1.5c0-0.8,0.2-1.3,0.5-1.6c0.4-0.3,1.1-0.4,2.1-0.4c1,0,1.7,0.1,2,0.4
			c0.3,0.2,0.5,0.7,0.5,1.4V15.2z"/>
	</g>
	<g>
		<path class="st4" d="M43.6,14.9V8.3h3.3c0.8,0,1.4,0.1,1.7,0.4S49,9.5,49,10.2c0,0.7-0.1,1.1-0.2,1.4c-0.2,0.2-0.5,0.4-0.9,0.5v0
			c0.7,0,1.1,0.5,1.1,1.3v1.5h-1.3v-1.2c0-0.7-0.3-1-1-1h-1.8v2.2H43.6z M44.8,11.6h1.8c0.4,0,0.7-0.1,0.9-0.2
			c0.1-0.2,0.2-0.5,0.2-0.9c0-0.5-0.1-0.8-0.2-0.9c-0.1-0.1-0.4-0.2-0.8-0.2h-1.9V11.6z"/>
		<path class="st4" d="M52.8,8.2c1.2,0,2,0.2,2.3,0.6c0.3,0.4,0.5,1.3,0.5,2.7c0,1.5-0.2,2.5-0.5,2.9c-0.4,0.4-1.2,0.6-2.5,0.6
			c-1.2,0-2-0.2-2.3-0.6c-0.4-0.4-0.5-1.3-0.5-2.6c0-1.6,0.2-2.6,0.5-3C50.6,8.4,51.4,8.2,52.8,8.2z M52.7,9.3
			c-0.8,0-1.3,0.1-1.5,0.3c-0.1,0.2-0.2,1-0.2,2.3c0,1,0.1,1.5,0.3,1.7s0.7,0.3,1.5,0.3c0.8,0,1.3-0.1,1.4-0.3s0.2-0.9,0.2-2
			c0-1.1-0.1-1.8-0.2-2C54,9.4,53.5,9.3,52.7,9.3z"/>
		<path class="st4" d="M61.4,10.2h-1.2c0-0.1,0-0.1,0-0.1c0-0.4-0.1-0.6-0.2-0.7c-0.1-0.1-0.5-0.1-1-0.1c-0.6,0-1,0.1-1.2,0.2
			c-0.2,0.1-0.3,0.3-0.3,0.7c0,0.4,0.1,0.7,0.2,0.8c0.1,0.1,0.6,0.2,1.5,0.2c1,0.1,1.6,0.2,1.9,0.4c0.3,0.2,0.4,0.7,0.4,1.4
			c0,0.9-0.2,1.5-0.5,1.7S60,15,58.8,15c-1,0-1.7-0.1-2.1-0.4s-0.5-0.8-0.5-1.5l0-0.2h1.2l0,0.1c0,0.5,0.1,0.8,0.2,0.9
			c0.2,0.1,0.6,0.2,1.3,0.2c0.6,0,0.9-0.1,1.1-0.2c0.2-0.1,0.2-0.4,0.2-0.8c0-0.3-0.1-0.5-0.2-0.6c-0.1-0.1-0.4-0.2-0.8-0.2l-0.7,0
			c-1.1-0.1-1.7-0.2-2-0.4c-0.3-0.2-0.4-0.7-0.4-1.5c0-0.8,0.2-1.3,0.5-1.6s1.1-0.4,2.1-0.4c1,0,1.7,0.1,2,0.4
			c0.3,0.2,0.5,0.7,0.5,1.4V10.2z"/>
		<path class="st4" d="M65.1,9.4v5.5h-1.3V9.4h-1.9V8.3h5.2v1.1H65.1z"/>
		<path class="st4" d="M68.9,9.3V11H72V12h-3.1v1.9h3.3v1.1h-4.6V8.3h4.6v1.1H68.9z"/>
		<path class="st4" d="M73.2,14.9V8.3h3.3c0.8,0,1.4,0.1,1.7,0.4c0.3,0.3,0.5,0.8,0.5,1.5c0,0.7-0.1,1.1-0.2,1.4
			c-0.2,0.2-0.5,0.4-0.9,0.5v0c0.7,0,1.1,0.5,1.1,1.3v1.5h-1.3v-1.2c0-0.7-0.3-1-1-1h-1.8v2.2H73.2z M74.4,11.6h1.8
			c0.4,0,0.7-0.1,0.9-0.2c0.1-0.2,0.2-0.5,0.2-0.9c0-0.5-0.1-0.8-0.2-0.9c-0.1-0.1-0.4-0.2-0.8-0.2h-1.9V11.6z"/>
	</g>
	<g>
		<path class="st4" d="M41.2,12.5h1.3v0.2c0,0.9-0.2,1.5-0.5,1.8c-0.3,0.3-1.1,0.4-2.2,0.4c-1.3,0-2.1-0.2-2.4-0.6s-0.5-1.6-0.5-3.4
			c0-1.1,0.2-1.8,0.6-2.2s1.3-0.5,2.6-0.5c1,0,1.6,0.1,1.9,0.4s0.5,0.9,0.5,1.7l0,0.2h-1.3v-0.2c0-0.4-0.1-0.7-0.2-0.8
			s-0.5-0.2-1.1-0.2c-0.8,0-1.3,0.1-1.4,0.3s-0.2,0.8-0.2,1.7c0,1.3,0.1,2,0.2,2.3s0.6,0.4,1.4,0.4c0.6,0,1-0.1,1.2-0.2
			c0.2-0.1,0.3-0.4,0.3-0.9L41.2,12.5z"/>
		<path class="st4" d="M46.1,8.2c1.2,0,2,0.2,2.3,0.6s0.5,1.3,0.5,2.7c0,1.5-0.2,2.5-0.5,2.9c-0.4,0.4-1.2,0.6-2.5,0.6
			c-1.2,0-2-0.2-2.3-0.6C43.2,14,43,13.1,43,11.8c0-1.6,0.2-2.6,0.5-3S44.7,8.2,46.1,8.2z M46,9.3c-0.8,0-1.3,0.1-1.5,0.3
			s-0.2,1-0.2,2.3c0,1,0.1,1.5,0.3,1.7s0.7,0.3,1.5,0.3c0.8,0,1.3-0.1,1.4-0.3s0.2-0.9,0.2-2c0-1.1-0.1-1.8-0.2-2S46.8,9.3,46,9.3z"
			/>
		<path class="st4" d="M56,8.3v6.7h-2.1l-1.9-3.7c-0.1-0.2-0.2-0.5-0.4-1l-0.2-0.5l-0.2-0.5h0l0,0.4l0,0.4l0,0.9v3.8h-1.3V8.3h2.1
			l1.7,3.4c0.2,0.3,0.3,0.7,0.5,1.1l0.3,0.5l0.3,0.5h0l0-0.4l0-0.4l0-0.9V8.3H56z"/>
		<path class="st4" d="M62.1,10.2h-1.2c0-0.1,0-0.1,0-0.1c0-0.4-0.1-0.6-0.2-0.7s-0.5-0.1-1-0.1c-0.6,0-1,0.1-1.2,0.2
			s-0.3,0.3-0.3,0.7c0,0.4,0.1,0.7,0.2,0.8s0.6,0.1,1.5,0.2c1,0.1,1.6,0.2,1.9,0.4s0.4,0.7,0.4,1.4c0,0.9-0.2,1.5-0.5,1.7
			S60.7,15,59.5,15c-1,0-1.7-0.1-2.1-0.4s-0.5-0.8-0.5-1.5l0-0.2h1.2l0,0.1c0,0.5,0.1,0.8,0.2,0.9c0.2,0.1,0.6,0.2,1.3,0.2
			c0.6,0,0.9-0.1,1.1-0.2c0.2-0.1,0.2-0.4,0.2-0.8c0-0.3-0.1-0.5-0.2-0.6c-0.1-0.1-0.4-0.2-0.8-0.2l-0.7,0c-1.1-0.1-1.7-0.2-2-0.4
			s-0.4-0.7-0.4-1.5c0-0.8,0.2-1.3,0.5-1.6s1.1-0.4,2.1-0.4c1,0,1.7,0.1,2,0.4s0.5,0.7,0.5,1.4V10.2z"/>
		<path class="st4" d="M65.9,8.2c1.2,0,2,0.2,2.3,0.6c0.3,0.4,0.5,1.3,0.5,2.7c0,1.5-0.2,2.5-0.5,2.9C67.9,14.8,67,15,65.7,15
			c-1.2,0-2-0.2-2.3-0.6c-0.4-0.4-0.5-1.3-0.5-2.6c0-1.6,0.2-2.6,0.5-3C63.7,8.4,64.5,8.2,65.9,8.2z M65.8,9.3
			c-0.8,0-1.3,0.1-1.5,0.3c-0.1,0.2-0.2,1-0.2,2.3c0,1,0.1,1.5,0.3,1.7c0.2,0.2,0.7,0.3,1.5,0.3c0.8,0,1.3-0.1,1.4-0.3
			s0.2-0.9,0.2-2c0-1.1-0.1-1.8-0.2-2C67.1,9.4,66.6,9.3,65.8,9.3z"/>
		<path class="st4" d="M70.9,8.3v5.5H74v1.1h-4.4V8.3H70.9z"/>
		<path class="st4" d="M75.8,9.3V11h3.1V12h-3.1v1.9h3.3v1.1h-4.6V8.3h4.6v1.1H75.8z"/>
		<path class="st4" d="M85,10.2h-1.2c0-0.1,0-0.1,0-0.1c0-0.4-0.1-0.6-0.2-0.7s-0.5-0.1-1-0.1c-0.6,0-1,0.1-1.2,0.2
			c-0.2,0.1-0.3,0.3-0.3,0.7c0,0.4,0.1,0.7,0.2,0.8c0.1,0.1,0.6,0.1,1.5,0.2c1,0.1,1.6,0.2,1.9,0.4c0.3,0.2,0.4,0.7,0.4,1.4
			c0,0.9-0.2,1.5-0.5,1.7S83.6,15,82.4,15c-1,0-1.7-0.1-2.1-0.4c-0.3-0.3-0.5-0.8-0.5-1.5l0-0.2H81l0,0.1c0,0.5,0.1,0.8,0.2,0.9
			c0.2,0.1,0.6,0.2,1.3,0.2c0.6,0,0.9-0.1,1.1-0.2c0.2-0.1,0.2-0.4,0.2-0.8c0-0.3-0.1-0.5-0.2-0.6c-0.1-0.1-0.4-0.2-0.8-0.2l-0.7,0
			c-1.1-0.1-1.7-0.2-2-0.4s-0.4-0.7-0.4-1.5c0-0.8,0.2-1.3,0.5-1.6c0.4-0.3,1.1-0.4,2.1-0.4c1,0,1.7,0.1,2,0.4
			C84.8,8.8,85,9.3,85,9.9V10.2z"/>
	</g>
	<g>
		<path class="st4" d="M49.2,9.3V11h3.1V12h-3.1v1.9h3.3v1.1h-4.6V8.3h4.6v1.1H49.2z"/>
		<path class="st4" d="M53.5,14.9V8.3h3.3c0.9,0,1.6,0.2,2,0.6s0.6,1.1,0.6,2.1c0,1.7-0.1,2.7-0.4,3.2s-1,0.7-2,0.7H53.5z
			 M54.7,13.9h1.8c0.6,0,1-0.1,1.2-0.4s0.3-0.9,0.3-1.8c0-1-0.1-1.6-0.2-1.9s-0.5-0.4-1.1-0.4h-1.9V13.9z"/>
		<path class="st4" d="M65.1,10.2h-1.2c0-0.1,0-0.1,0-0.1c0-0.4-0.1-0.6-0.2-0.7s-0.5-0.1-1-0.1c-0.6,0-1,0.1-1.2,0.2
			s-0.3,0.3-0.3,0.7c0,0.4,0.1,0.7,0.2,0.8s0.6,0.1,1.5,0.2c1,0.1,1.6,0.2,1.9,0.4c0.3,0.2,0.4,0.7,0.4,1.4c0,0.9-0.2,1.5-0.5,1.7
			S63.7,15,62.5,15c-1,0-1.7-0.1-2.1-0.4s-0.5-0.8-0.5-1.5l0-0.2h1.2l0,0.1c0,0.5,0.1,0.8,0.2,0.9c0.2,0.1,0.6,0.2,1.3,0.2
			c0.6,0,0.9-0.1,1.1-0.2c0.2-0.1,0.2-0.4,0.2-0.8c0-0.3-0.1-0.5-0.2-0.6c-0.1-0.1-0.4-0.2-0.8-0.2l-0.7,0c-1.1-0.1-1.7-0.2-2-0.4
			s-0.4-0.7-0.4-1.5c0-0.8,0.2-1.3,0.5-1.6s1.1-0.4,2.1-0.4c1,0,1.7,0.1,2,0.4c0.3,0.2,0.5,0.7,0.5,1.4V10.2z"/>
		<path class="st4" d="M73.9,8.3v6.7h-1.3v-3.6c0-0.3,0-0.6,0-1l0-0.5l0-0.5h0l-0.2,0.5l-0.1,0.5c-0.1,0.4-0.2,0.7-0.3,0.9l-1.5,3.8
			h-1.2L68,11.2c-0.1-0.2-0.2-0.5-0.3-0.9l-0.2-0.5l-0.2-0.5h0l0,0.5l0,0.5c0,0.4,0,0.7,0,1v3.6h-1.3V8.3h2.1l1.2,3.1
			c0.1,0.2,0.2,0.5,0.3,0.9l0.1,0.5l0.2,0.5h0l0.1-0.5l0.1-0.5c0.1-0.4,0.2-0.7,0.3-0.9l1.2-3.1H73.9z"/>
	</g>
	<g>
		<path class="st4" d="M43,11.4h2.9l0,1.3c0,1-0.2,1.6-0.5,1.9S44.2,15,43,15c-1.2,0-1.9-0.2-2.3-0.6s-0.6-1.1-0.6-2.3
			c0-1.5,0.1-2.4,0.2-2.8c0.2-0.5,0.5-0.8,0.8-0.9s1-0.2,1.9-0.2c1.2,0,1.9,0.1,2.3,0.4s0.5,0.8,0.5,1.7h-1.3c0-0.4-0.1-0.7-0.3-0.8
			s-0.6-0.2-1.3-0.2c-0.7,0-1.2,0.1-1.4,0.3s-0.3,0.6-0.3,1.3l0,0.7l0,0.9c0,0.7,0.1,1.1,0.3,1.3s0.6,0.3,1.4,0.3
			c0.7,0,1.1-0.1,1.3-0.2c0.2-0.2,0.3-0.5,0.3-1.1l0-0.3H43V11.4z"/>
		<path class="st4" d="M48,9.3V11h3.1V12H48v1.9h3.3v1.1h-4.6V8.3h4.6v1.1H48z"/>
		<path class="st4" d="M58.4,8.3v6.7h-2.1l-1.9-3.7c-0.1-0.2-0.2-0.5-0.4-1l-0.2-0.5l-0.2-0.5h0l0,0.4l0,0.4l0,0.9v3.8h-1.3V8.3h2.1
			l1.7,3.4c0.2,0.3,0.3,0.7,0.5,1.1l0.3,0.5l0.3,0.5h0l0-0.4l0-0.4l0-0.9V8.3H58.4z"/>
		<path class="st4" d="M60.7,9.3V11h3.1V12h-3.1v1.9H64v1.1h-4.6V8.3H64v1.1H60.7z"/>
		<path class="st4" d="M65,14.9V8.3h3.3c0.8,0,1.4,0.1,1.7,0.4c0.3,0.3,0.5,0.8,0.5,1.5c0,0.7-0.1,1.1-0.2,1.4
			c-0.2,0.2-0.5,0.4-1,0.5v0c0.7,0,1.1,0.5,1.1,1.3v1.5h-1.3v-1.2c0-0.7-0.3-1-1-1h-1.8v2.2H65z M66.3,11.6h1.8
			c0.4,0,0.7-0.1,0.9-0.2s0.2-0.5,0.2-0.9c0-0.5-0.1-0.8-0.2-0.9s-0.4-0.2-0.8-0.2h-1.9V11.6z"/>
		<path class="st4" d="M75.5,13.6h-2.9l-0.4,1.3h-1.3l2.2-6.7H75l2.3,6.7h-1.3L75.5,13.6z M75.2,12.7L74,9.2l-1.1,3.5H75.2z"/>
		<path class="st4" d="M79,8.3v5.5h3.1v1.1h-4.4V8.3H79z"/>
	</g>
</g>
</svg>
