<svg id="Alternate" xmlns="http://www.w3.org/2000/svg" viewBox="0 0 1005 1005"><defs><style>.cls-1,.cls-5{fill:#dede6f;}.cls-2,.cls-7{fill:#373793;}.cls-3,.cls-6{fill:#d23c3c;}.cls-4{fill:#fff;}.cls-5,.cls-6,.cls-7{fill-rule:evenodd;}.cls-8{fill:#c12323;}</style></defs><title>dw2logo_alternate</title><path class="cls-1" d="M502.5,2.5c-276.14,0-500,223.86-500,500s223.86,500,500,500,500-223.86,500-500S778.64,2.5,502.5,2.5ZM503,977C240.66,977,28,764.34,28,502S240.66,27,503,27,978,239.66,978,502,765.34,977,503,977Z"/><circle class="cls-2" cx="503" cy="502" r="475"/><path d="M874.5,502c0-205.73-166.77-372.5-372.5-372.5S129.5,296.27,129.5,502,296.27,874.5,502,874.5,874.5,707.73,874.5,502ZM458.15,647.45c14.6-38.68,164.31-18,334.38,46.29q11.31,4.28,22.37,8.67l-10,12.17q-8.71-3.45-17.65-6.83c-136.06-51.4-255.82-68-267.51-37-5.68,15,15.26,38.57,53.92,64.68,0,1.33-.07,2.69-.07,4.11a133.13,133.13,0,0,0,1.35,19C496,714.33,448.9,671.92,458.15,647.45Z"/><path class="cls-3" d="M824.05,679.15A365.75,365.75,0,0,0,869.5,502C869.5,299,705,134.5,502,134.5S134.5,299,134.5,502,299,869.5,502,869.5a366.74,366.74,0,0,0,125.76-22.08l1-.36q2.47,1.79,5,3.47a373.81,373.81,0,0,0,193-165.85c-.85-1.86-1.75-3.68-2.67-5.49ZM502,835c-183.91,0-333-149.09-333-333S318.09,169,502,169,835,318.09,835,502a331.7,331.7,0,0,1-33.41,145.55l-.06.12A132.47,132.47,0,0,0,600.88,820.05l-1,.32A332.82,332.82,0,0,1,502,835Z"/><path class="cls-1" d="M458.15,647.45c-9.25,24.47,37.85,66.88,116.78,111a133.13,133.13,0,0,1-1.35-19c0-1.42,0-2.78.07-4.11-38.66-26.11-59.6-49.63-53.92-64.68,11.69-30.94,131.45-14.36,267.51,37q8.93,3.38,17.65,6.83l10-12.17q-11.05-4.39-22.37-8.67C622.46,629.5,472.75,608.77,458.15,647.45Z"/><path class="cls-1" d="M920.61,535.49c-11.27,142.87-94.2,265.58-212.86,332.18l6.7,11.91C836.78,810.69,922.21,684,933.68,536.52Z"/><path class="cls-1" d="M85.41,537.41l-13.92,1.17c12.15,147.19,98,273.47,220.58,341.86l6.85-12.31C180.36,801.92,97.29,679.78,85.41,537.41Z"/><g id="Gold_Inner_Rim" data-name="Gold Inner Rim"><path class="cls-1" d="M502.5,127.5c-207.11,0-375,167.89-375,375s167.89,375,375,375,375-167.89,375-375S709.61,127.5,502.5,127.5Zm.37,723.13c-192.47,0-348.49-156-348.49-348.5s156-348.51,348.49-348.51,348.51,156,348.51,348.51S695.35,850.63,502.87,850.63Z"/></g><g id="Text"><path class="cls-4" d="M367.55,862.42c-10.74-4-18.41-5.13-23.44-3.48-5.25,1.72-9.41,6.9-12.73,15.83l-1,2.59a2.5,2.5,0,0,0,1.47,3.21l12.7,4.72a2.5,2.5,0,0,0,3.22-1.47l.75-2c2-5.41,3.53-6.15,3.82-6.25s2.36-.52,9.56,2.15c8.06,3,9.4,4.58,9.58,4.86,0,.06.86,1.41-1.23,7-1.4,3.76-2.68,4.89-3.21,5s-3,.05-12.69-3.55l-2.22-.88a2.51,2.51,0,0,0-3.27,1.45l-3.79,10.22a2.5,2.5,0,0,0,1.47,3.21l8,3c5.39,2,6.7,3.48,7,4s.74,2-.76,6c-2.14,5.76-3.81,6.72-4.27,6.87s-2.81.55-10.29-2.23c-8.29-3.08-9.93-4.84-10.23-5.31-.18-.27-1-1.9,1.16-7.6.09-.23.28-.79.92-2.95a2.5,2.5,0,0,0-1.52-3.06L323.76,899a2.5,2.5,0,0,0-3.2,1.44l-1.5,3.88c-3.18,8.56-3.19,15.39,0,20.28,3.06,4.73,9.95,9,21.07,13.17,8.17,3,14.65,4.54,19.63,4.54a17.76,17.76,0,0,0,5.13-.68c5.5-1.68,10-7,13.27-15.93S379.51,911,376,907.15c4.8-1.08,9.67-4.69,12.94-13.48,2.87-7.73,2.64-14-.69-18.71C385,870.51,378.28,866.41,367.55,862.42Z"/><path class="cls-4" d="M478.5,891.32c-4.12-3.58-11.65-6-23-7.33s-19.1-.66-23.6,2.13c-4.7,2.9-7.53,8.91-8.66,18.37l-.32,2.75a2.5,2.5,0,0,0,2.18,2.78l13.46,1.6a2.49,2.49,0,0,0,1.84-.52,2.51,2.51,0,0,0,.94-1.67l.25-2.15c.69-5.73,2-6.81,2.24-7s2.17-1.06,9.8-.16c8.54,1,10.21,2.24,10.46,2.48,0,0,1.16,1.17.45,7.11-.48,4-1.45,5.39-1.95,5.59s-2.93.76-13.17-.46l-2.36-.34a2.48,2.48,0,0,0-1.88.49,2.52,2.52,0,0,0-1,1.69l-1.29,10.82a2.51,2.51,0,0,0,2.19,2.78l8.5,1c5.7.68,7.33,1.81,7.76,2.26s1.2,1.77.69,6c-.73,6.1-2.13,7.43-2.53,7.69s-2.61,1.19-10.53.25c-8.78-1.05-10.79-2.38-11.2-2.76-.23-.22-1.37-1.63-.65-7.65,0-.27.08-.85.2-3.1a2.51,2.51,0,0,0-2.2-2.61l-13.62-1.62a2.5,2.5,0,0,0-2.77,2.15l-.55,4.12c-1.08,9.07.51,15.71,4.75,19.72,4.08,3.87,11.79,6.44,23.57,7.84a91.94,91.94,0,0,0,10.9.73c6.26,0,10.9-.93,14.07-2.8,5-2.91,8-9.17,9.16-18.59s-2.12-14.58-6.47-17.51c4.4-2.19,8.28-6.84,9.39-16.15C484.54,901.15,482.84,895.08,478.5,891.32Z"/><path class="cls-4" d="M133.36,382.43,63.13,361.38a2,2,0,0,0-2.49,1.34l-4,13.33A2,2,0,0,0,58,378.54l70.23,21a2.32,2.32,0,0,0,.58.08,2,2,0,0,0,1.91-1.43l4-13.32A2,2,0,0,0,133.36,382.43Z"/><path class="cls-4" d="M150.14,289.46c-7.71-3.9-13.56-4.81-17.87-2.78-4.1,1.93-8.88,7.69-14.6,17.62-6,10.5-8.06,12.55-8.66,12.94-.23.16-1.64.8-6.53-1.67-2.8-1.41-4.28-2.93-4.4-4.53-.08-1.11.33-4.06,4-11.3,3.15-6.25,4.8-7.62,5.36-7.92s2.06-.66,6.4,1.11c.36.18.85.38,1.51.63a2,2,0,0,0,2.49-1L124,280.46a2,2,0,0,0-.88-2.69l-2.5-1.25c-7.37-3.73-13.46-4.31-18.12-1.74-4.46,2.47-9.16,8.68-14.36,19-5.49,10.88-7.74,18.71-6.87,23.94.9,5.4,5.51,10.23,13.71,14.37s14.21,5.12,18.55,3.1c4.14-1.93,9.12-8,15.22-18.48l3.9-6.65c2.63-4.54,4.17-5.52,4.71-5.73s2-.44,5.55,1.35c4.83,2.44,5.82,4.2,6,5s.1,3.28-3.42,10.26c-4.64,9.18-6.71,11.09-7.38,11.49-.43.25-2.22.85-7.74-1.93l-1.42-.65a2,2,0,0,0-2.62.91l-6.1,12.08a2,2,0,0,0-.11,1.55,2,2,0,0,0,1,1.16l2.38,1.14c5.22,2.64,9.69,4,13.48,4a13.11,13.11,0,0,0,6-1.36c4.63-2.33,9.53-8.71,15-19.49,6-12,8.52-20.26,7.58-25.38C164.54,299.08,159.51,294.19,150.14,289.46Z"/><path class="cls-4" d="M206.62,251.4l-45.68-37.11,12.56-15.46a2,2,0,0,0,.43-1.47,1.94,1.94,0,0,0-.73-1.34l-9.67-7.86a2,2,0,0,0-2.81.29l-35.93,44.23a2,2,0,0,0,.29,2.82l9.67,7.85a2,2,0,0,0,2.81-.29l12.08-14.87,45.68,37.11a2,2,0,0,0,2.82-.29l8.77-10.8a2,2,0,0,0-.29-2.81Z"/><path class="cls-4" d="M327.7,157.14a2,2,0,0,0,0-1.53L310.47,117.2l-4.05-8.77-.21-.44,1.86,1.66c4.15,3.74,7.05,6.26,8.86,7.7l35.55,28.16a2,2,0,0,0,2.06.26l21.53-9.63a2,2,0,0,0,1.05-1.12,2,2,0,0,0-.05-1.53L347.13,66.57a2,2,0,0,0-2.65-1l-12.69,5.69a2,2,0,0,0-1,2.64L348,112.44l4,8.63.33.67-3.51-3c-3.95-3.38-7.41-6.26-10.28-8.58L306,84a2,2,0,0,0-2.07-.27l-21.52,9.63a2,2,0,0,0-1,2.64l29.95,66.92a2,2,0,0,0,1.11,1.06,2.17,2.17,0,0,0,.71.13,2,2,0,0,0,.82-.18l12.7-5.68A2,2,0,0,0,327.7,157.14Z"/><path class="cls-4" d="M422.33,124.18a2,2,0,0,0,1.13.35,1.5,1.5,0,0,0,.37,0l13.67-2.56a2,2,0,0,0,1.6-2.33L428.27,61.75l19.57-3.67a2,2,0,0,0,1.28-.83,2,2,0,0,0,.32-1.5l-2.3-12.25a2,2,0,0,0-2.33-1.6l-56,10.49a2,2,0,0,0-1.6,2.34L389.49,67a2,2,0,0,0,2.34,1.6L410.66,65l10.84,57.85A2,2,0,0,0,422.33,124.18Z"/><path class="cls-4" d="M636.11,138.45a2,2,0,0,0,1.73-1L675.57,71.6a2,2,0,0,0-1.23-2.93L660.58,65a2,2,0,0,0-2.24.94L637.56,102c-1.47,2.57-3.23,5.88-5.24,9.83l-1.41,2.81.09-3.16c.08-3.78.11-7.51.09-11.09l-.32-41.76a2,2,0,0,0-1.49-1.92l-15.79-4.18a2,2,0,0,0-2.23.92L590,89.52c-2.29,3.88-4.15,7.13-5.53,9.66L583,101.91l.16-3.08c.23-4.65.36-8.36.4-11l.07-41.6a2,2,0,0,0-1.48-1.94l-13.71-3.63a2,2,0,0,0-1.73.35,2,2,0,0,0-.78,1.58l-.4,75.74a2,2,0,0,0,1.49,1.94l19.68,5.21a2,2,0,0,0,2.23-.92l19.74-33.6c1.62-2.74,3.2-5.52,4.72-8.3l.76-1.45c-.16,4.46-.23,8.17-.21,11.07l.24,39a2,2,0,0,0,1.49,1.92l19.88,5.27A2.31,2.31,0,0,0,636.11,138.45Z"/><path class="cls-4" d="M857.17,310.24l-17.33-27.35,49.71-31.5a2,2,0,0,0,.62-2.76l-7.45-11.76a2,2,0,0,0-2.76-.61L818,275.5a2,2,0,0,0-.62,2.76l25.85,40.79a2,2,0,0,0,1.25.88,2.12,2.12,0,0,0,.44.05,2.07,2.07,0,0,0,1.07-.31L856.55,313A2,2,0,0,0,857.17,310.24Z"/><path class="cls-4" d="M964,453.92c-1.27-12.13-3.61-19.93-7.17-23.85s-10.16-5.63-19.31-4.67-14.71,3.37-17.27,7.42c-2.44,3.86-3.36,11.64-2.82,23.77l.32,7.7c.24,5.24-.52,6.9-.86,7.37s-1.44,1.45-5.41,1.86c-5.58.58-7.27-.5-7.74-1s-1.86-2.7-2.67-10.48c-1.07-10.23-.37-13,0-13.66.22-.44,1.41-1.92,7.55-2.56l1.55-.22a2,2,0,0,0,1.71-2.18L910.42,430a2,2,0,0,0-2.24-1.77l-2.62.32c-9.23,1-15.06,3.7-17.81,8.37-2.64,4.47-3.31,12.48-2.06,24.49,1.39,13.32,3.79,21.65,7.35,25.46,2.91,3.1,7.74,4.63,14.71,4.63a60.42,60.42,0,0,0,6.32-.36c8.6-.89,14-3.29,16.54-7.32,2.4-3.84,3.31-11.27,2.76-22.72-.6-12.09,0-14.92.28-15.57.11-.26.94-1.56,6.4-2.13,3.12-.32,5.18.16,6.15,1.44.67.89,1.92,3.59,2.76,11.66.72,7,.08,9-.24,9.56s-1.37,1.67-6,2.52c-.39.05-.92.14-1.61.29a2,2,0,0,0-1.57,2.16L941,484.5a2,2,0,0,0,2.2,1.78l2.77-.29c8.22-.85,13.66-3.66,16.19-8.34C964.55,473.17,965.14,465.4,964,453.92Z"/><path class="cls-4" d="M684.05,899.31a2.49,2.49,0,0,0-3.21-1.49l-5.64,2.07-15.43-42a2.51,2.51,0,0,0-3.21-1.49l-20.35,7.48a2.5,2.5,0,0,0-1.53,1.61L619,916.35a2.5,2.5,0,0,0,0,1.6l5.44,14.8a2.51,2.51,0,0,0,3.21,1.49l35.15-12.91,4.61,12.56a2.52,2.52,0,0,0,1.3,1.4,2.4,2.4,0,0,0,1,.23,2.55,2.55,0,0,0,.86-.15l13.18-4.84a2.5,2.5,0,0,0,1.48-3.21l-4.61-12.56,5.64-2.07a2.52,2.52,0,0,0,1.4-1.3,2.48,2.48,0,0,0,.08-1.91Zm-46.33,14.35,10.19-32.85,9.42,25.65Z"/><path class="cls-4" d="M575.31,888.13c-4.23-4.21-13.3-5.45-27.72-3.78s-23,4.92-26.14,10-3.55,15.59-1.49,33.52,4.95,28.2,9.07,32.33c3,3,8.53,4.52,16.7,4.52a95.53,95.53,0,0,0,11-.71c14.43-1.66,23-4.92,26.14-10s3.55-15.61,1.48-33.57S579.43,892.24,575.31,888.13Zm-9.24,55.09c-.29.63-2,2.78-11.1,3.83s-11.37-.15-11.85-.55-2.18-2.43-3.27-11.86l-1.13-8.87-1-9.68c-1-8.39.09-10.88.58-11.55s2.43-2.26,10.16-3.15c11.07-1.27,12.87.42,13,.61.48.55,2.17,3.64,4.07,20.16C567.41,938.16,566.53,942.22,566.07,943.22Z"/><path class="cls-4" d="M764.85,127.66c-1.07-6.43-7.42-13.13-19.41-20.46C732,99,722.46,96,716.22,98S702.51,108.48,693.05,124c-8,13.08-11.32,22.5-10.14,28.78s7.6,13,19.58,20.34c10.69,6.54,18.9,9.76,24.93,9.76a13.41,13.41,0,0,0,4-.56c6.1-1.88,13.5-10,22.61-24.93C762.35,143.69,765.9,134,764.85,127.66Zm-26.7,20.87c-8.06,13.15-11.45,16.06-12.76,16.62-.95.4-4.14.73-13.31-4.88-9.71-5.94-11.13-8.88-11.29-9.87s.21-4.71,7.3-16.3c9.76-16,13.16-18.78,14.17-19.26a2.43,2.43,0,0,1,1-.18c1.63,0,5.25.86,12.92,5.56,9.91,6.06,10.87,8.92,10.93,9.66C747.23,130.92,746.52,134.84,738.15,148.53Z"/><path class="cls-4" d="M290.37,174.78l-64.93-42.11a2,2,0,0,0-2.33.11l-16.38,13a2,2,0,0,0-.64,2.25l26.4,72.62a2,2,0,0,0,1.33,1.24,2.09,2.09,0,0,0,.55.08,2,2,0,0,0,1.24-.44l11.54-9.13a2,2,0,0,0,.63-2.27l-4.65-12.5,22.53-17.84,11.19,7.34a2,2,0,0,0,2.34-.11l11.33-9a2,2,0,0,0,.75-1.66A2,2,0,0,0,290.37,174.78Zm-52.5,8.8L227,154.19l26.24,17.22Z"/><path class="cls-4" d="M113.11,430.88c-5.19-4.1-16.83-7.05-35.58-9-11.77-1.24-20.09.08-25.44,4S43.48,437.25,42.35,448l-3.78,35.84a2,2,0,0,0,1.78,2.2l72.91,7.68.22,0a2,2,0,0,0,2-1.79l3.83-36.27C120.59,443.3,118.57,435.2,113.11,430.88Zm-9.73,25.84-1.87,17.72-45.65-4.81,2-18.57c.42-3.9,1.53-8.83,4.53-10.22,1.9-.88,6.86-1.64,19.74-.28,12.41,1.31,17.08,3.23,18.82,4.61C103.17,447,104,450.86,103.38,456.72Z"/><path class="cls-4" d="M816.58,224.34a12.64,12.64,0,0,0,7.19.69c3.54-.8,8-3.9,13.54-9.45,6.26-6.23,9.2-11.81,9-17.05s-3.61-11-10.38-17.79l-25.5-25.62a2,2,0,0,0-1.41-.59h0a2,2,0,0,0-1.41.58l-52,51.72a2,2,0,0,0,0,2.83l9.82,9.86a2,2,0,0,0,1.41.59h0a2,2,0,0,0,1.41-.58l16.1-16,12.72,12.78c4.47,4.49,4.43,8.53-.14,13.08l-9.48,9.44a2,2,0,0,0-.59,1.41,2,2,0,0,0,.58,1.42l9.81,9.86a2.09,2.09,0,0,0,1.42.59h0a2,2,0,0,0,1.41-.59l11.46-11.4C817.56,234.11,818.13,228.71,816.58,224.34Zm-8.41-19.17-12.69-12.74,15-15,13.37,13.42c3.76,3.79,4.07,5.69,4,6.34s-.63,2.77-5.17,7.28c-4.25,4.24-6.57,4.94-7.57,5S812,209,808.17,205.17Z"/><path class="cls-4" d="M920.62,391.47c11.16-4,18.09-8.74,21.21-14.61s2.86-14-.75-24.13l-12.06-34a2,2,0,0,0-1-1.14,2,2,0,0,0-1.53-.08l-69.09,24.53a2,2,0,0,0-1.22,2.56L868.37,379c4.15,11.69,9.47,18.13,16.26,19.67a19.35,19.35,0,0,0,4.27.42C895.78,399.1,906.24,396.58,920.62,391.47Zm-38.37-20.3-6-16.79L919.54,339l6.25,17.6c1.31,3.69,2.43,8.63.33,11.17-1.33,1.61-5.48,4.44-17.69,8.77-11.76,4.18-16.8,4.46-19,4C886.65,379.88,884.23,376.73,882.25,371.17Z"/></g><g id="Stars"><path class="cls-5" d="M486.29,277.23c-50.77,0-59.26-8.32-59.26-59.24,0-24-1.6-24-1.6,0,0,50.92-7.66,59.24-59.25,59.24-29.58,0-29.58,1.6,0,1.6,51.26,0,59.25,7.66,59.25,59.23,0,29.3,1.6,29.21,1.6,0,0-51.07,7.91-59.23,59.26-59.23C511.23,278.83,511.23,277.23,486.29,277.23ZM808.92,524.84c-39.58,0-46.2-6.51-46.2-46.28,0-18.75-1.24-18.75-1.24,0,0,39.77-6,46.28-46.19,46.28-23.06,0-23.06,1.24,0,1.24,40,0,46.19,6,46.19,46.28,0,22.89,1.24,22.82,1.24,0,0-39.9,6.17-46.28,46.2-46.28C828.36,526.08,828.36,524.84,808.92,524.84ZM573.46,333c-23.18,0-27.05-3.83-27.05-27.21,0-11-.73-11-.73,0,0,23.38-3.5,27.21-27.06,27.21-13.5,0-13.5.73,0,.73,23.41,0,27.06,3.52,27.06,27.21,0,13.46.73,13.42.73,0,0-23.46,3.61-27.21,27.05-27.21C584.84,333.71,584.84,333,573.46,333Zm-247.73,3.6c-30.59,0-35.7-5-35.7-35.73,0-14.47-1-14.47-1,0,0,30.71-4.61,35.73-35.7,35.73-17.82,0-17.82,1,0,1,30.89,0,35.7,4.62,35.7,35.73,0,17.67,1,17.62,1,0,0-30.8,4.76-35.73,35.7-35.73C340.75,337.54,340.75,336.58,325.73,336.58Zm145.5,395c-30.59,0-35.7-5-35.7-35.73,0-14.47-1-14.47-1,0,0,30.71-4.61,35.73-35.7,35.73-17.82,0-17.82,1,0,1,30.89,0,35.7,4.62,35.7,35.73,0,17.67,1,17.62,1,0,0-30.8,4.76-35.73,35.7-35.73C486.25,732.54,486.25,731.58,471.23,731.58ZM518,225.5a9.5,9.5,0,1,0-9.5-9.5A9.5,9.5,0,0,0,518,225.5ZM205.5,449a9.5,9.5,0,1,0,9.5,9.5A9.5,9.5,0,0,0,205.5,449Zm322,131a9.5,9.5,0,1,0,9.5,9.5A9.5,9.5,0,0,0,527.5,580ZM250.25,371.5a6.25,6.25,0,1,0,6.25,6.25A6.25,6.25,0,0,0,250.25,371.5ZM478.75,770a6.25,6.25,0,1,0,6.25,6.25A6.25,6.25,0,0,0,478.75,770Zm225.5-283.5a6.25,6.25,0,1,0-6.25-6.25A6.25,6.25,0,0,0,704.25,486.5ZM332.25,239a6.25,6.25,0,1,0,6.25,6.25A6.25,6.25,0,0,0,332.25,239Zm336,311a6.25,6.25,0,1,0,6.25,6.25A6.25,6.25,0,0,0,668.25,550Z"/></g><g id="Cobra"><g id="Shape_1" data-name="Shape 1"><polygon class="cls-5" points="528 393 449 382 291.5 408 247 431 252.5 439.5 284.5 452.5 287 456 311.5 465.5 316 465.5 325 463 316.5 479 341 491 363.5 480.5 367 477.5 385 483.5 386.5 490.5 396.5 491.5 387 507.5 421.5 519 440 511 448.5 520 485 531.5 495.5 530.5 601.5 559.5 614.5 553 628.5 497.5 528 393"/></g><g id="Shape_2" data-name="Shape 2"><polygon class="cls-6" points="476 388 451.5 384 448 384 441.5 385.5 447 387 452 386 470 389 470 391.5 481 396.5 485 395 485 393 476 388"/></g><g id="Shape_4" data-name="Shape 4"><polygon class="cls-6" points="555 515 529 504 527 499 391.5 440.5 373.5 435 280.5 425 275 426 265 426 252.5 432 255.5 437 287.5 449.5 290 453 316 463 329 461 443 499 442 508.5 450.5 516.5 483.5 527 494.5 526 600.5 555.5 609.5 551 555 515"/></g><g id="trail1"><path class="cls-6" d="M533,834c-127.35,7.27-196.4-160.18-73.5-337,2.94-4.23-6-24-6-24S290.68,699.44,330,806.5c.65,1.77,95,42.5,210.5,37.5C545,843.81,555.77,832.7,533,834Z"/></g><g id="trail2"><path class="cls-6" d="M324,437.5c-80.23,53.7-132.6,152-137.91,177.78-3.33,16.17-4.77,8.66-2.59,16.72s7.5,33.5,12,14.5S327.5,457.5,336,444,327.83,434.94,324,437.5Z"/></g><g id="bigtrail"><path class="cls-5" d="M540,849c-157.58,15.72-230-184.5-85-370,4.87-6.23-47.13-27.64-51-23-15.3,18.37-39.27,45.57-48,57.5-9.33,12.75-29.26,39.61-45.5,77.5-5.09,11.88-9.33-8,3-36.5,12.68-29.31,24.94-45.21,58-81.5,3.94-4.33-2.72-25.19-5.5-34.5-.66-2.21-20.12-2.19-22.5-.5C237.94,513,188.58,633.93,191,659c3.42,35.35,113,212.5,329.5,203.5C564.56,860.67,553.92,847.61,540,849Z"/></g><g id="Shape_5" data-name="Shape 5"><polygon class="cls-7" points="369.5 440 367.5 437 329 433 322.5 441 341.5 445 352 439.5 363 440.5 365 443.5 345 466.5 346 477 356.5 479 375.5 473.5 369.5 440"/></g><g id="Shape_6" data-name="Shape 6"><polygon class="cls-7" points="457.5 472 402 448.5 394 458.5 394 465.5 415 474.5 428 476 440.5 469.5 449.5 473 444 478.5 439 491 431 499.5 433 505.5 441 505 463.5 499 457.5 472"/></g><g id="Shape_7" data-name="Shape 7"><polygon class="cls-6" points="469 417.5 453 419 450.5 421.5 468 442 453 456 454.5 459 491 473.5 495.5 472 504.5 460 505 458 469 417.5"/></g><g id="Shape_8" data-name="Shape 8"><polygon class="cls-6" points="391 401.5 331 413 323.5 415 308.5 423 329.5 425 333 424.5 351 413.5 388.5 407 391.5 405 391 401.5"/></g></g><path class="cls-3" d="M610.83,443.11a1,1,0,0,1-.76-.35l-9.35-11a1,1,0,0,1-.23-.65v-43.6c0-22.77,4.19-38.16,12.47-45.75s27.4-14,58.3-19.54c24.92-4.44,39.83-8.52,44.33-12.11s6.61-12.91,6.61-28a78.16,78.16,0,0,0-1.66-17.71c-.19-.8-.33-1.4-.42-1.83-4.29-2.76-11-3.65-27.08-3.65-17.65,0-28.88,1.95-33.38,5.8S653,278.17,653,293.37v9.09a1,1,0,0,1-1,1H611.5a1,1,0,0,1-.73-.31l-9.39-10a1,1,0,0,1-.27-.69v-8.94c0-27,5.72-45.57,17-55,12.47-10.46,47-14.19,75.11-14.19,27.6,0,51.23,8.4,63.21,22.46,11.55,13.58,16.94,31.46,16.94,56.29,0,25.05-4.38,42.1-13,50.67s-28.43,15.71-59,21.37c-24.92,4.55-39.55,8.41-43.48,11.49-3.46,2.71-5.26,6.81-5.34,21.38H763.35a1,1,0,0,1,.75.34l8.41,9.56a1,1,0,0,1,.24.66v33.59a1,1,0,0,1-1,1Z"/><path class="cls-8" d="M693.2,215.3c31.16,0,52.3,10.2,62.44,22.11,10.54,12.37,16.71,29.29,16.71,55.64q0,37.33-12.71,50t-58.5,21.09q-37.8,6.91-43.92,11.69c-4.07,3.19-5.72,8.11-5.72,23.17H763.35l8.4,9.56v33.59H610.83l-9.34-11v-43.6q0-33.87,12.15-45t57.8-19.29q37.8-6.75,44.78-12.32t7-28.78a79,79,0,0,0-1.69-17.95c-.27-1.13-.42-1.84-.5-2.27.08-.09,0-.57-.07-.57s0,.15.07.57a0,0,0,0,1,0,0l-.06,0c-4.69-3.15-12-4-27.87-4q-27,0-34,6T652,293.37v9.09H611.5l-9.39-10v-8.94q0-40.31,16.63-54.26c11.08-9.31,42.57-14,74.46-14m0-2c-28.31,0-63.08,3.79-75.75,14.42-11.5,9.67-17.34,28.44-17.34,55.8v8.94a2,2,0,0,0,.55,1.37l9.38,10a2,2,0,0,0,1.46.63H652a2,2,0,0,0,2-2v-9.09c0-18.56,3.46-25.41,6.36-27.89s11.05-5.56,32.73-5.56c15.44,0,22.07.8,26.19,3.27.09.41.2.9.34,1.44a77.39,77.39,0,0,1,1.63,17.48c0,18.39-3.39,24.95-6.23,27.22-3,2.4-13.06,6.41-43.88,11.91-31.1,5.55-50.33,12-58.8,19.78-8.62,7.9-12.8,23.1-12.8,46.49v43.6a2,2,0,0,0,.47,1.3l9.35,11a2,2,0,0,0,1.52.7H771.75a2,2,0,0,0,2-2V408.52a2,2,0,0,0-.49-1.32l-8.41-9.56a2,2,0,0,0-1.5-.68H653.51c.15-13.35,1.81-17.14,5-19.6,2.61-2,12.2-5.66,43-11.29,31.23-5.77,50.71-12.85,59.55-21.64s13.3-25.7,13.3-51.38c0-25.08-5.46-43.17-17.18-56.93-5.62-6.6-14-12.16-24.15-16.1-11.54-4.46-24.94-6.72-39.82-6.72Z"/><path class="cls-2" d="M601.49,432.11a1,1,0,0,1-1-1v-43.6c0-22.77,4.19-38.16,12.47-45.75s27.4-14,58.3-19.54c24.92-4.44,39.83-8.52,44.33-12.11s6.61-12.91,6.61-28c0-14.47-2.23-23.71-6.63-27.47s-15.39-5.72-32.53-5.72c-17.65,0-28.88,2-33.38,5.8S643,268.17,643,283.37v9.09a1,1,0,0,1-1,1H602.11a1,1,0,0,1-1-1v-8.94c0-27,5.72-45.57,17-55s33.12-14.19,65.1-14.19c31.26,0,52.82,4.83,64.09,14.35s17.06,27.87,17.06,54.4c0,25.05-4.38,42.1-13,50.67s-28.43,15.71-59,21.37c-24.92,4.55-39.55,8.41-43.48,11.49s-5.73,11.92-5.73,26.58V398H763.35a1,1,0,0,1,1,1v32.15a1,1,0,0,1-1,1Z"/><path class="cls-1" d="M683.2,215.3q46.74,0,63.44,14.11t16.71,53.64q0,37.33-12.71,50t-58.5,21.09q-37.8,6.91-43.92,11.69t-6.11,27.37V399H763.35v32.15H601.49v-43.6q0-33.87,12.15-45t57.8-19.29q37.8-6.75,44.78-12.32t7-28.78q0-22.26-7-28.23t-33.18-6q-27,0-34,6T642,283.37v9.09H602.11v-8.94q0-40.31,16.63-54.26t64.46-14m0-2c-32.68,0-54.19,4.72-65.75,14.42s-17.34,28.44-17.34,55.8v8.94a2,2,0,0,0,2,2H642a2,2,0,0,0,2-2v-9.09c0-18.56,3.46-25.41,6.36-27.89s11.05-5.56,32.73-5.56c21,0,29,3,31.88,5.48s6.28,9.07,6.28,26.71c0,18.39-3.39,24.95-6.23,27.22-3,2.4-13.06,6.41-43.88,11.91-31.1,5.55-50.33,12-58.8,19.78-8.62,7.9-12.8,23.1-12.8,46.49v43.6a2,2,0,0,0,2,2H763.35a2,2,0,0,0,2-2V399a2,2,0,0,0-2-2H644.11v-3.8c0-17.86,2.91-23.89,5.35-25.8,2.61-2,12.2-5.66,43-11.29,31.23-5.77,50.71-12.85,59.55-21.64s13.3-25.7,13.3-51.38c0-26.84-5.86-45.4-17.41-55.16s-32.8-14.59-64.74-14.59Z"/></svg>