<svg id="Calque_1" data-name="Calque 1" xmlns="http://www.w3.org/2000/svg" viewBox="0 0 1711.48 138.49"><defs><style>.cls-1{fill:#fff;}</style></defs><title>dw2textwatermark_alternate</title><g id="Calque_2" data-name="Calque 2"><g id="Calque_1-2" data-name="Calque 1-2"><path class="cls-1" d="M1711.48,117.86v20.63H1607.71v-28q0-21.73,7.8-28.89t37-12.38q24.23-4.32,28.7-7.9t4.48-18.46q0-14.3-4.48-18.12T1660,20.93q-17.3,0-21.82,3.88t-4.53,18.87v5.84h-25.53V43.78q0-25.86,10.65-34.82t41.33-9q30,0,40.67,9.06t10.71,34.42q0,24-8.15,32.05T1665.83,89q-24.24,4.43-28.15,7.5t-3.92,17.56v3.73Zm-215.76,5.7a53.09,53.09,0,0,1-13.41-1.41q-5.3-1.41-16.06-5.12l4.06-11.31q15.53,5.84,25.76,5.83,10.59,0,17.64-3.8t7.06-11.21a12.06,12.06,0,0,0-5.65-10.42q-5.64-3.89-16.23-7.77l-4.05-1.59q-13.24-5.3-19.76-11T1468.55,50q0-13.24,8.64-20A33.53,33.53,0,0,1,1488,24.57a46.91,46.91,0,0,1,13.23-1.67q10.76,0,26.64,6.71L1524.47,40q-14.12-5.66-21.87-5.65-10.23,0-16.14,3.79a12,12,0,0,0-5.92,10.69,11.51,11.51,0,0,0,3.09,8.12,23.23,23.23,0,0,0,6.88,5.21q3.79,1.86,10.68,4.68a46.28,46.28,0,0,0,5.11,1.94,131.62,131.62,0,0,1,14.38,6.63,28.31,28.31,0,0,1,8.91,7.85,20.48,20.48,0,0,1,3.71,12.54q0,13.61-10.94,20.67T1495.72,123.56Zm-92.54-7.24q-10,5.82-24.61,5.83h-34.22V25h34.22q14.46,0,24.53,5.91a40.36,40.36,0,0,1,15.52,16.34,59.63,59.63,0,0,1,5.65,26.31q0,15.54-5.65,26.14a39.5,39.5,0,0,1-15.44,16.62Zm4.15-62.87q-4.59-9-10.41-13.07-7.59-5.3-19.23-5.3H1356V111.9h21.7q11.82,0,19-4.68a31.62,31.62,0,0,0,11.2-13.15q3.52-7.25,3.53-20.49A48.4,48.4,0,0,0,1407.33,53.45ZM1245.55,25h11.64v86.9h43.58v10.25h-55.22Zm-59.1,97.13L1160,81.88h-18.52v40.27h-11.65V25h30.53a77.67,77.67,0,0,1,10,.44c2.06.29,4.09.68,6.09,1.15a26,26,0,0,1,13.23,10c3.18,4.66,4.77,10.33,4.77,17a26.36,26.36,0,0,1-6.09,17q-5.91,7.06-16.14,9.71l27.52,41.86ZM1179,65q3.7-4.16,3.7-12.1,0-7.77-4.41-12.19t-11.82-5.12q-2.64-.71-12.35-.7h-12.7v36.2q7,.52,12.7.53a76.35,76.35,0,0,0,15.17-1.24A17.33,17.33,0,0,0,1179,65Zm-118.47,52q-10.15,6.34-24.44,6.35T1011.87,117a44,44,0,0,1-15.61-17.31q-5.64-10.25-5.64-26.14,0-15.54,5.64-26.31a43.66,43.66,0,0,1,15.61-17q10-6.27,24.26-6.27t24.44,6.27a43.27,43.27,0,0,1,15.79,17A62.64,62.64,0,0,1,1082,73.58a60,60,0,0,1-5.64,26.14A43.59,43.59,0,0,1,1060.57,117Zm4.32-63.58q-9-19.24-28.76-19.25-10.93,0-17.64,5.21a38.39,38.39,0,0,0-10.94,14q-4,8.13-4.06,20.13,0,12.19,4.06,20.13a38,38,0,0,0,10.94,14.22q6.7,5.2,17.64,5.21,11.12,0,17.91-5.21a36.23,36.23,0,0,0,10.85-14.22,46,46,0,0,0,4.23-20.13,46.86,46.86,0,0,0-4.19-20.06Zm-153.31,68.7L886,40.91l-24,81.24H849.65L819.13,25h12.7l24.35,81.59L880.7,25h11.82l25.23,81.59L941.57,25H953l-29.11,97.13Zm-223.53,0h-11.6V34.91H644.3V25h76.39v9.89H688.05ZM536,40.38v81.77H524.33V25h14.82l52.75,81.41V25h12v97.13h-15ZM460.11,93.71H423.06l-9.17,28.44H401.72L434.88,25H449l33.34,97.13h-13ZM441.41,37.2l-15,46.45h30.34Zm-105,85H324.8V34.91H292.69V25h76.39v9.89H336.44Zm-118.56,1.41a53.09,53.09,0,0,1-13.41-1.41q-5.28-1.41-16.05-5.12l4.06-11.31q15.53,5.83,25.76,5.83,10.57,0,17.64-3.8t7.06-11.21a12.07,12.07,0,0,0-5.65-10.42Q231.61,82.29,221,78.4l-4-1.64q-13.23-5.3-19.76-11T190.71,50q0-13.24,8.65-20a33.63,33.63,0,0,1,10.76-5.57,46.91,46.91,0,0,1,13.23-1.67q10.76,0,26.64,6.71L246.64,40q-14.12-5.66-21.88-5.65-10.23,0-16.14,3.79a12,12,0,0,0-5.91,10.69A11.54,11.54,0,0,0,205.8,57a22.94,22.94,0,0,0,6.88,5.21q3.8,1.86,10.67,4.68a47.21,47.21,0,0,0,5.12,1.94,131.62,131.62,0,0,1,14.38,6.63,28.54,28.54,0,0,1,8.91,7.85q3.7,5,3.7,12.54,0,13.61-10.94,20.67t-26.64,7ZM128.26,25h11.47v97.13H128.26ZM58.84,116.3q-10,5.82-24.61,5.83H0V25H34.23q14.46,0,24.52,5.91A40.35,40.35,0,0,1,74.27,47.27a59.46,59.46,0,0,1,5.65,26.31q0,15.54-5.65,26.14a39.42,39.42,0,0,1-15.43,16.6ZM63,53.45q-4.59-9-10.41-13.07-7.58-5.3-19.23-5.3H11.64V111.9h21.7q11.82,0,19-4.68a31.56,31.56,0,0,0,11.2-13.15Q67,86.82,67,73.58A48.37,48.37,0,0,0,63,53.45Z"/></g></g></svg>